<?xml version="1.0" encoding="utf-8" standalone="no"?>
<!DOCTYPE svg PUBLIC "-//W3C//DTD SVG 1.1//EN"
  "http://www.w3.org/Graphics/SVG/1.1/DTD/svg11.dtd">
<svg xmlns:xlink="http://www.w3.org/1999/xlink" width="377.1pt" height="446.832pt" viewBox="0 0 377.1 446.832" xmlns="http://www.w3.org/2000/svg" version="1.1">
 <metadata>
  <rdf:RDF xmlns:dc="http://purl.org/dc/elements/1.1/" xmlns:cc="http://creativecommons.org/ns#" xmlns:rdf="http://www.w3.org/1999/02/22-rdf-syntax-ns#">
   <cc:Work>
    <dc:type rdf:resource="http://purl.org/dc/dcmitype/StillImage"/>
    <dc:format>image/svg+xml</dc:format>
    <dc:creator>
     <cc:Agent>
      <dc:title>Original author-generated explanation</dc:title>
     </cc:Agent>
    </dc:creator>
   </cc:Work>
  </rdf:RDF>
 </metadata>
 <defs>
  <style type="text/css">*{stroke-linejoin: round; stroke-linecap: butt}</style>
 </defs>
 <g id="figure_1">
  <g id="patch_1">
   <path d="M 0 446.832
L 377.1 446.832
L 377.1 0
L 0 0
z
" style="fill: #faf9f5"/>
  </g>
  <g id="axes_1">
   <g id="patch_2">
    <path d="M 12.6405 133.470144
L 364.4595 133.470144
Q 368.8119 133.470144 368.8119 128.28096
L 368.8119 33.14592
Q 368.8119 27.956736 364.4595 27.956736
L 12.6405 27.956736
Q 8.2881 27.956736 8.2881 33.14592
L 8.2881 128.28096
Q 8.2881 133.470144 12.6405 133.470144
z
" clip-path="url(#p0fc09dae0c)" style="fill: #eaf0ed"/>
   </g>
   <g id="patch_3">
    <path d="M 12.6405 271.848384
L 364.4595 271.848384
Q 368.8119 271.848384 368.8119 266.6592
L 368.8119 171.52416
Q 368.8119 166.334976 364.4595 166.334976
L 12.6405 166.334976
Q 8.2881 166.334976 8.2881 171.52416
L 8.2881 266.6592
Q 8.2881 271.848384 12.6405 271.848384
z
" clip-path="url(#p0fc09dae0c)" style="fill: #eaf0ed"/>
   </g>
   <g id="patch_4">
    <path d="M 12.6405 410.226624
L 364.4595 410.226624
Q 368.8119 410.226624 368.8119 405.03744
L 368.8119 309.9024
Q 368.8119 304.713216 364.4595 304.713216
L 12.6405 304.713216
Q 8.2881 304.713216 8.2881 309.9024
L 8.2881 405.03744
Q 8.2881 410.226624 12.6405 410.226624
z
" clip-path="url(#p0fc09dae0c)" style="fill: #eaf0ed"/>
   </g>
   <g id="text_1">
    <!-- 假设更新：测量时序改变 -->
    <g style="fill: #277f87" transform="translate(27.1485 59.524272) scale(0.185 -0.185)">
     <defs>
      <path id="NotoSansCJKjp-Regular-5047" d="M 4026 5094
L 4026 4678
L 5382 4678
L 5382 3520
L 4026 3520
L 4026 3104
L 5837 3104
L 5837 5094
L 4026 5094
z
M 1344 5344
C 1107 4352 717 3373 224 2726
C 307 2611 442 2355 486 2246
C 634 2438 774 2662 909 2899
L 909 -506
L 1370 -506
L 1370 3904
C 1536 4333 1677 4787 1792 5242
L 1344 5344
z
M 2010 5094
L 2010 -493
L 2451 -493
L 2451 787
L 3699 787
L 3699 1197
L 2451 1197
L 2451 1997
L 3629 1997
L 3629 2406
L 2451 2406
L 2451 3091
L 3770 3091
L 3770 5094
L 2010 5094
z
M 5408 2202
C 5286 1741 5101 1344 4864 1011
C 4640 1370 4461 1773 4346 2202
L 5408 2202
z
M 3846 2605
L 3846 2202
L 4288 2202
L 3968 2125
C 4115 1587 4320 1094 4595 672
C 4230 282 3789 0 3302 -173
C 3392 -256 3494 -416 3552 -525
C 4045 -326 4480 -51 4851 326
C 5139 -32 5485 -314 5894 -499
C 5965 -390 6093 -224 6189 -134
C 5779 32 5421 307 5133 653
C 5498 1133 5766 1747 5920 2528
L 5645 2618
L 5568 2605
L 3846 2605
z
M 2451 4685
L 3347 4685
L 3347 3501
L 2451 3501
L 2451 4685
z
" transform="scale(0.015625)"/>
      <path id="NotoSansCJKjp-Regular-8bbe" d="M 781 4966
C 1120 4666 1549 4237 1747 3962
L 2074 4301
C 1869 4563 1440 4979 1094 5261
L 781 4966
z
M 275 3366
L 275 2906
L 1178 2906
L 1178 608
C 1178 314 979 102 858 26
C 947 -70 1075 -269 1120 -384
C 1216 -256 1389 -128 2528 717
C 2470 813 2394 992 2355 1120
L 1645 602
L 1645 3366
L 275 3366
z
M 3142 5146
L 3142 4435
C 3142 3962 3002 3430 2157 3046
C 2246 2970 2413 2784 2470 2688
C 3392 3130 3597 3821 3597 4422
L 3597 4698
L 4730 4698
L 4730 3667
C 4730 3181 4819 3002 5267 3002
C 5338 3002 5651 3002 5747 3002
C 5875 3002 6010 3008 6086 3034
C 6067 3142 6054 3328 6042 3450
C 5965 3430 5830 3418 5741 3418
C 5658 3418 5370 3418 5299 3418
C 5197 3418 5184 3475 5184 3661
L 5184 5146
L 3142 5146
z
M 5152 2099
C 4922 1587 4576 1165 4154 826
C 3725 1178 3386 1606 3155 2099
L 5152 2099
z
M 2458 2547
L 2458 2099
L 2790 2099
L 2701 2067
C 2957 1478 3322 966 3776 550
C 3296 243 2746 32 2182 -96
C 2272 -198 2374 -390 2413 -512
C 3034 -346 3622 -102 4141 250
C 4627 -109 5210 -371 5869 -531
C 5926 -397 6061 -205 6163 -102
C 5549 26 4998 250 4531 550
C 5075 1024 5510 1638 5766 2438
L 5472 2566
L 5389 2547
L 2458 2547
z
" transform="scale(0.015625)"/>
      <path id="NotoSansCJKjp-Regular-66f4" d="M 1613 1523
L 1203 1357
C 1421 986 1690 691 2003 454
C 1613 230 1062 45 301 -96
C 403 -205 531 -410 589 -518
C 1421 -339 2016 -102 2445 179
C 3328 -288 4506 -435 5997 -493
C 6022 -333 6112 -128 6202 -19
C 4768 19 3661 115 2835 486
C 3168 813 3341 1184 3418 1581
L 5587 1581
L 5587 4058
L 3488 4058
L 3488 4602
L 5984 4602
L 5984 5037
L 416 5037
L 416 4602
L 2989 4602
L 2989 4058
L 998 4058
L 998 1581
L 2912 1581
C 2835 1274 2688 986 2394 730
C 2086 934 1824 1190 1613 1523
z
M 1459 2630
L 2989 2630
L 2989 2374
C 2989 2240 2989 2106 2976 1978
L 1459 1978
L 1459 2630
z
M 3475 1978
C 3482 2106 3488 2234 3488 2368
L 3488 2630
L 5107 2630
L 5107 1978
L 3475 1978
z
M 1459 3654
L 2989 3654
L 2989 3014
L 1459 3014
L 1459 3654
z
M 3488 3654
L 5107 3654
L 5107 3014
L 3488 3014
L 3488 3654
z
" transform="scale(0.015625)"/>
      <path id="NotoSansCJKjp-Regular-65b0" d="M 774 4179
C 902 3891 1005 3501 1024 3251
L 1434 3360
C 1402 3610 1293 3987 1158 4269
L 774 4179
z
M 2419 4282
C 2349 4013 2208 3610 2093 3360
L 2483 3264
C 2598 3501 2733 3859 2854 4186
L 2419 4282
z
M 5670 5306
C 5254 5094 4538 4890 3872 4749
L 3526 4851
L 3526 2611
C 3526 1709 3443 602 2624 -211
C 2733 -275 2906 -435 2970 -538
C 3866 352 3987 1645 3987 2605
L 3987 2765
L 4954 2765
L 4954 -480
L 5414 -480
L 5414 2765
L 6144 2765
L 6144 3213
L 3987 3213
L 3987 4365
C 4704 4506 5510 4704 6061 4954
L 5670 5306
z
M 1581 5350
L 1581 4704
L 390 4704
L 390 4301
L 3219 4301
L 3219 4704
L 2048 4704
L 2048 5350
L 1581 5350
z
M 301 3245
L 301 2835
L 1581 2835
L 1581 2170
L 320 2170
L 320 1747
L 1472 1747
C 1152 1184 640 595 179 301
C 282 224 422 64 506 -45
C 870 243 1267 698 1581 1197
L 1581 -499
L 2048 -499
L 2048 1139
C 2317 896 2637 576 2778 416
L 3066 774
C 2912 909 2291 1421 2048 1594
L 2048 1747
L 3245 1747
L 3245 2170
L 2048 2170
L 2048 2835
L 3296 2835
L 3296 3245
L 301 3245
z
" transform="scale(0.015625)"/>
      <path id="NotoSansCJKjp-Regular-ff1a" d="M 3200 3482
C 3456 3482 3686 3667 3686 3962
C 3686 4256 3456 4442 3200 4442
C 2944 4442 2714 4256 2714 3962
C 2714 3667 2944 3482 3200 3482
z
M 3200 346
C 3456 346 3686 538 3686 826
C 3686 1120 3456 1312 3200 1312
C 2944 1312 2714 1120 2714 826
C 2714 538 2944 346 3200 346
z
" transform="scale(0.015625)"/>
      <path id="NotoSansCJKjp-Regular-6d4b" d="M 3110 589
C 3437 269 3814 -179 3994 -467
L 4307 -250
C 4122 26 3738 461 3411 774
L 3110 589
z
M 1997 5005
L 1997 986
L 2374 986
L 2374 4634
L 3763 4634
L 3763 1005
L 4154 1005
L 4154 5005
L 1997 5005
z
M 5549 5293
L 5549 45
C 5549 -51 5510 -83 5421 -83
C 5331 -90 5030 -90 4691 -83
C 4749 -198 4813 -384 4832 -486
C 5280 -493 5555 -480 5722 -410
C 5882 -339 5946 -218 5946 45
L 5946 5293
L 5549 5293
z
M 4672 4800
L 4672 966
L 5056 966
L 5056 4800
L 4672 4800
z
M 2854 4179
L 2854 1914
C 2854 1139 2726 339 1658 -205
C 1728 -262 1850 -422 1894 -499
C 3046 83 3226 1050 3226 1907
L 3226 4179
L 2854 4179
z
M 518 4966
C 877 4768 1338 4461 1555 4256
L 1850 4646
C 1619 4838 1152 5120 806 5306
L 518 4966
z
M 243 3238
C 595 3040 1062 2752 1293 2560
L 1581 2944
C 1338 3130 864 3405 518 3584
L 243 3238
z
M 371 -173
L 806 -429
C 1075 160 1395 947 1626 1619
L 1242 1869
C 986 1152 627 320 371 -173
z
" transform="scale(0.015625)"/>
      <path id="NotoSansCJKjp-Regular-91cf" d="M 1600 4256
L 4781 4256
L 4781 3904
L 1600 3904
L 1600 4256
z
M 1600 4883
L 4781 4883
L 4781 4538
L 1600 4538
L 1600 4883
z
M 1133 5171
L 1133 3616
L 5261 3616
L 5261 5171
L 1133 5171
z
M 333 3341
L 333 2976
L 6074 2976
L 6074 3341
L 333 3341
z
M 1472 1747
L 2957 1747
L 2957 1376
L 1472 1376
L 1472 1747
z
M 3424 1747
L 4973 1747
L 4973 1376
L 3424 1376
L 3424 1747
z
M 1472 2387
L 2957 2387
L 2957 2029
L 1472 2029
L 1472 2387
z
M 3424 2387
L 4973 2387
L 4973 2029
L 3424 2029
L 3424 2387
z
M 301 19
L 301 -352
L 6112 -352
L 6112 19
L 3424 19
L 3424 390
L 5587 390
L 5587 730
L 3424 730
L 3424 1082
L 5446 1082
L 5446 2688
L 1018 2688
L 1018 1082
L 2957 1082
L 2957 730
L 838 730
L 838 390
L 2957 390
L 2957 19
L 301 19
z
" transform="scale(0.015625)"/>
      <path id="NotoSansCJKjp-Regular-65f6" d="M 3034 2893
C 3373 2400 3808 1722 4013 1331
L 4435 1574
C 4218 1965 3776 2618 3430 3104
L 3034 2893
z
M 2074 2573
L 2074 1114
L 979 1114
L 979 2573
L 2074 2573
z
M 2074 3002
L 979 3002
L 979 4403
L 2074 4403
L 2074 3002
z
M 518 4838
L 518 160
L 979 160
L 979 678
L 2522 678
L 2522 4838
L 518 4838
z
M 4890 5344
L 4890 4096
L 2816 4096
L 2816 3622
L 4890 3622
L 4890 211
C 4890 83 4838 38 4710 38
C 4570 26 4096 26 3597 45
C 3667 -96 3744 -314 3776 -448
C 4416 -448 4826 -442 5056 -358
C 5286 -282 5376 -141 5376 211
L 5376 3622
L 6157 3622
L 6157 4096
L 5376 4096
L 5376 5344
L 4890 5344
z
" transform="scale(0.015625)"/>
      <path id="NotoSansCJKjp-Regular-5e8f" d="M 2374 2810
C 2822 2624 3360 2374 3789 2150
L 1472 2150
L 1472 1734
L 3469 1734
L 3469 38
C 3469 -51 3437 -77 3309 -83
C 3187 -90 2758 -90 2285 -77
C 2349 -211 2426 -390 2451 -525
C 3027 -525 3411 -531 3642 -454
C 3878 -384 3949 -256 3949 38
L 3949 1734
L 5331 1734
C 5101 1408 4826 1082 4602 858
L 4986 666
C 5338 1005 5728 1536 6080 2022
L 5728 2176
L 5645 2150
L 4576 2150
L 4608 2182
C 4461 2272 4275 2368 4064 2477
C 4589 2765 5120 3155 5491 3539
L 5171 3782
L 5069 3757
L 1843 3757
L 1843 3360
L 4634 3360
C 4352 3117 3987 2861 3642 2675
C 3309 2829 2963 2976 2662 3091
L 2374 2810
z
M 774 4659
L 774 2880
C 774 1952 730 653 198 -262
C 314 -314 525 -448 602 -531
C 1152 442 1242 1888 1242 2880
L 1242 4211
L 6086 4211
L 6086 4659
L 3635 4659
L 3635 5376
L 3142 5376
L 3142 4659
L 774 4659
z
" transform="scale(0.015625)"/>
      <path id="NotoSansCJKjp-Regular-6539" d="M 3693 5376
C 3494 4365 3136 3411 2624 2778
L 2624 4813
L 442 4813
L 442 4365
L 2157 4365
L 2157 3104
L 448 3104
L 448 1050
C 448 506 608 371 1178 371
C 1299 371 2042 371 2170 371
C 2662 371 2803 576 2861 1382
C 2726 1421 2528 1498 2426 1574
C 2400 928 2362 826 2131 826
C 1965 826 1344 826 1222 826
C 960 826 909 858 909 1056
L 909 2662
L 2157 2662
L 2157 2419
L 2624 2419
L 2624 2630
C 2746 2554 2893 2445 2963 2381
C 3130 2579 3277 2816 3418 3078
C 3597 2355 3834 1709 4154 1158
C 3712 595 3117 186 2304 -109
C 2394 -211 2547 -422 2598 -538
C 3373 -218 3968 192 4429 730
C 4813 198 5299 -224 5901 -506
C 5971 -378 6125 -186 6234 -90
C 5613 173 5120 595 4736 1139
C 5184 1818 5466 2675 5645 3744
L 6157 3744
L 6157 4205
L 3898 4205
C 4013 4550 4109 4915 4192 5286
L 3693 5376
z
M 3725 3744
L 5146 3744
C 5005 2880 4787 2170 4454 1594
C 4115 2208 3878 2938 3725 3738
L 3725 3744
z
" transform="scale(0.015625)"/>
      <path id="NotoSansCJKjp-Regular-53d8" d="M 1427 4026
C 1235 3571 915 3110 563 2803
C 672 2746 851 2618 941 2541
C 1280 2880 1645 3392 1856 3910
L 1427 4026
z
M 4422 3782
C 4813 3418 5280 2880 5510 2534
L 5888 2784
C 5664 3117 5197 3629 4781 3987
L 4422 3782
z
M 2765 5318
C 2880 5139 3008 4909 3091 4723
L 448 4723
L 448 4294
L 2221 4294
L 2221 2349
L 2701 2349
L 2701 4294
L 3686 4294
L 3686 2355
L 4166 2355
L 4166 4294
L 5952 4294
L 5952 4723
L 3629 4723
C 3546 4922 3373 5222 3226 5434
L 2765 5318
z
M 851 2170
L 851 1741
L 1363 1741
C 1702 1235 2163 819 2714 480
C 1997 192 1171 6 333 -102
C 416 -205 531 -403 570 -525
C 1491 -378 2400 -141 3194 218
C 3949 -154 4851 -397 5843 -525
C 5901 -397 6016 -211 6118 -102
C 5216 -6 4390 186 3686 474
C 4352 851 4902 1344 5267 1978
L 4960 2189
L 4877 2170
L 851 2170
z
M 1894 1741
L 4538 1741
C 4211 1318 3744 973 3200 698
C 2662 979 2221 1325 1894 1741
z
" transform="scale(0.015625)"/>
     </defs>
     <use xlink:href="#NotoSansCJKjp-Regular-5047"/>
     <use xlink:href="#NotoSansCJKjp-Regular-8bbe" transform="translate(99.999985 0)"/>
     <use xlink:href="#NotoSansCJKjp-Regular-66f4" transform="translate(199.999969 0)"/>
     <use xlink:href="#NotoSansCJKjp-Regular-65b0" transform="translate(299.999954 0)"/>
     <use xlink:href="#NotoSansCJKjp-Regular-ff1a" transform="translate(399.999939 0)"/>
     <use xlink:href="#NotoSansCJKjp-Regular-6d4b" transform="translate(499.999924 0)"/>
     <use xlink:href="#NotoSansCJKjp-Regular-91cf" transform="translate(599.999908 0)"/>
     <use xlink:href="#NotoSansCJKjp-Regular-65f6" transform="translate(699.999893 0)"/>
     <use xlink:href="#NotoSansCJKjp-Regular-5e8f" transform="translate(799.999878 0)"/>
     <use xlink:href="#NotoSansCJKjp-Regular-6539" transform="translate(899.999863 0)"/>
     <use xlink:href="#NotoSansCJKjp-Regular-53d8" transform="translate(999.999847 0)"/>
    </g>
   </g>
   <g id="text_2">
    <!-- 设备变化为本文构造 -->
    <g style="fill: #203e43" transform="translate(27.1485 87.632352) scale(0.16 -0.16)">
     <defs>
      <path id="NotoSansCJKjp-Regular-5907" d="M 4384 4403
C 4077 4077 3661 3795 3187 3552
C 2752 3770 2381 4032 2106 4333
L 2176 4403
L 4384 4403
z
M 2362 5395
C 2042 4838 1414 4198 486 3763
C 595 3686 742 3526 819 3411
C 1178 3597 1491 3808 1766 4032
C 2029 3763 2336 3526 2688 3322
C 1907 2995 1024 2771 192 2656
C 275 2547 371 2336 410 2202
C 1338 2355 2323 2630 3194 3053
C 3994 2669 4941 2419 5926 2291
C 5990 2426 6118 2624 6227 2733
C 5318 2835 4442 3027 3699 3322
C 4307 3680 4826 4122 5171 4653
L 4858 4851
L 4774 4826
L 2554 4826
C 2675 4979 2784 5133 2880 5293
L 2362 5395
z
M 1587 826
L 2944 826
L 2944 115
L 1587 115
L 1587 826
z
M 1587 1216
L 1587 1862
L 2944 1862
L 2944 1216
L 1587 1216
z
M 4774 826
L 4774 115
L 3437 115
L 3437 826
L 4774 826
z
M 4774 1216
L 3437 1216
L 3437 1862
L 4774 1862
L 4774 1216
z
M 1088 2285
L 1088 -512
L 1587 -512
L 1587 -307
L 4774 -307
L 4774 -499
L 5293 -499
L 5293 2285
L 1088 2285
z
" transform="scale(0.015625)"/>
      <path id="NotoSansCJKjp-Regular-5316" d="M 5517 4160
C 5050 3725 4314 3232 3597 2829
L 3597 5222
L 3110 5222
L 3110 480
C 3110 -230 3315 -416 3987 -416
C 4134 -416 5146 -416 5306 -416
C 5978 -416 6112 -51 6189 998
C 6048 1024 5856 1114 5734 1203
C 5690 269 5638 32 5280 32
C 5069 32 4192 32 4026 32
C 3667 32 3597 109 3597 467
L 3597 2342
C 4390 2758 5254 3251 5862 3750
L 5517 4160
z
M 2003 5280
C 1581 4262 870 3290 134 2675
C 224 2560 371 2310 422 2189
C 710 2451 998 2758 1267 3104
L 1267 -499
L 1747 -499
L 1747 3776
C 2022 4205 2272 4659 2470 5120
L 2003 5280
z
" transform="scale(0.015625)"/>
      <path id="NotoSansCJKjp-Regular-4e3a" d="M 1037 5018
C 1293 4717 1581 4307 1709 4045
L 2144 4256
C 2010 4518 1709 4915 1446 5197
L 1037 5018
z
M 3194 2374
C 3520 1984 3898 1446 4064 1107
L 4486 1338
C 4314 1670 3923 2189 3590 2566
L 3194 2374
z
M 2630 5363
L 2630 4608
C 2630 4365 2624 4109 2605 3834
L 525 3834
L 525 3354
L 2554 3354
C 2394 2214 1888 928 352 -70
C 467 -147 646 -314 730 -422
C 2368 666 2893 2099 3046 3354
L 5254 3354
C 5165 1178 5062 320 4870 122
C 4800 45 4730 26 4589 32
C 4435 32 4032 32 3597 70
C 3693 -70 3757 -282 3763 -429
C 4160 -448 4563 -461 4787 -442
C 5024 -416 5171 -365 5318 -179
C 5568 115 5658 1018 5760 3584
C 5760 3661 5766 3834 5766 3834
L 3098 3834
C 3110 4102 3117 4365 3117 4602
L 3117 5363
L 2630 5363
z
" transform="scale(0.015625)"/>
      <path id="NotoSansCJKjp-Regular-672c" d="M 2944 5370
L 2944 4026
L 416 4026
L 416 3539
L 2643 3539
C 2099 2438 1171 1402 198 896
C 307 800 461 621 544 499
C 1478 1050 2355 2016 2944 3130
L 2944 1171
L 1690 1171
L 1690 685
L 2944 685
L 2944 -512
L 3450 -512
L 3450 685
L 4672 685
L 4672 1171
L 3450 1171
L 3450 3123
C 4026 2016 4896 1043 5856 512
C 5939 646 6106 838 6221 934
C 5210 1427 4288 2438 3744 3539
L 5997 3539
L 5997 4026
L 3450 4026
L 3450 5370
L 2944 5370
z
" transform="scale(0.015625)"/>
      <path id="NotoSansCJKjp-Regular-6587" d="M 2944 5376
L 2944 4288
L 320 4288
L 320 3821
L 1274 3821
C 1638 2797 2138 1920 2803 1216
C 2118 653 1274 237 250 -58
C 346 -173 499 -403 557 -518
C 1594 -186 2458 262 3162 864
C 3878 230 4755 -237 5824 -512
C 5907 -378 6061 -154 6176 -45
C 5133 198 4262 640 3558 1229
C 4230 1914 4742 2758 5120 3821
L 6106 3821
L 6106 4288
L 3437 4288
L 3437 5376
L 2944 5376
z
M 3187 1574
C 2579 2195 2118 2950 1798 3821
L 4563 3821
C 4230 2912 3782 2170 3187 1574
z
" transform="scale(0.015625)"/>
      <path id="NotoSansCJKjp-Regular-6784" d="M 3341 5376
C 3181 4723 2931 4090 2618 3578
L 2618 4006
L 1766 4006
L 1766 5376
L 1306 5376
L 1306 4006
L 307 4006
L 307 3546
L 1242 3546
C 1024 2694 576 1702 147 1184
C 224 1069 346 870 397 742
C 730 1171 1056 1882 1306 2605
L 1306 -506
L 1766 -506
L 1766 2483
C 1990 2176 2266 1779 2381 1568
L 2682 1958
C 2547 2138 1958 2842 1766 3046
L 1766 3546
L 2598 3546
C 2483 3354 2349 3174 2214 3021
C 2336 2950 2534 2797 2618 2720
C 2874 3034 3110 3430 3322 3878
L 5530 3878
C 5446 1254 5350 275 5158 51
C 5094 -32 5030 -51 4915 -45
C 4781 -45 4474 -45 4128 -13
C 4211 -154 4269 -358 4282 -493
C 4595 -512 4915 -518 5107 -493
C 5318 -467 5453 -416 5587 -237
C 5824 77 5914 1069 6010 4077
C 6010 4141 6010 4326 6010 4326
L 3514 4326
C 3629 4627 3738 4947 3827 5267
L 3341 5376
z
M 2432 1248
L 2541 794
L 4589 1101
C 4646 928 4698 774 4723 640
L 5126 794
C 5030 1184 4749 1811 4474 2298
L 4102 2170
C 4224 1958 4339 1709 4442 1466
L 3392 1344
C 3603 1901 3827 2662 4000 3283
L 3533 3386
C 3411 2765 3168 1875 2950 1299
L 2432 1248
z
" transform="scale(0.015625)"/>
      <path id="NotoSansCJKjp-Regular-9020" d="M 384 4934
C 794 4646 1274 4218 1478 3904
L 1862 4224
C 1632 4531 1152 4947 730 5222
L 384 4934
z
M 3002 2016
L 5120 2016
L 5120 998
L 3002 998
L 3002 2016
z
M 2534 2413
L 2534 595
L 5613 595
L 5613 2413
L 2534 2413
z
M 3782 5376
L 3782 4570
L 3034 4570
C 3130 4768 3219 4979 3290 5190
L 2842 5293
C 2643 4698 2310 4102 1901 3712
C 2022 3661 2221 3546 2310 3475
C 2483 3667 2650 3898 2810 4154
L 3782 4154
L 3782 3328
L 1952 3328
L 1952 2918
L 6074 2918
L 6074 3328
L 4256 3328
L 4256 4154
L 5792 4154
L 5792 4570
L 4256 4570
L 4256 5376
L 3782 5376
z
M 1677 2848
L 314 2848
L 314 2400
L 1210 2400
L 1210 768
C 890 499 518 230 230 32
L 480 -461
C 826 -173 1152 102 1459 378
C 1869 -128 2445 -358 3283 -390
C 3994 -416 5318 -403 6016 -371
C 6035 -224 6118 6 6176 115
C 5414 64 3981 45 3283 77
C 2541 102 1978 326 1677 794
L 1677 2848
z
" transform="scale(0.015625)"/>
     </defs>
     <use xlink:href="#NotoSansCJKjp-Regular-8bbe"/>
     <use xlink:href="#NotoSansCJKjp-Regular-5907" transform="translate(99.999985 0)"/>
     <use xlink:href="#NotoSansCJKjp-Regular-53d8" transform="translate(199.999969 0)"/>
     <use xlink:href="#NotoSansCJKjp-Regular-5316" transform="translate(299.999954 0)"/>
     <use xlink:href="#NotoSansCJKjp-Regular-4e3a" transform="translate(399.999939 0)"/>
     <use xlink:href="#NotoSansCJKjp-Regular-672c" transform="translate(499.999924 0)"/>
     <use xlink:href="#NotoSansCJKjp-Regular-6587" transform="translate(599.999908 0)"/>
     <use xlink:href="#NotoSansCJKjp-Regular-6784" transform="translate(699.999893 0)"/>
     <use xlink:href="#NotoSansCJKjp-Regular-9020" transform="translate(799.999878 0)"/>
    </g>
   </g>
   <g id="text_3">
    <!-- 不是 PATH 已部署更新 -->
    <g style="fill: #203e43" transform="translate(27.1485 110.118816) scale(0.16 -0.16)">
     <defs>
      <path id="NotoSansCJKjp-Regular-4e0d" d="M 3578 3059
C 4339 2547 5299 1792 5754 1299
L 6144 1670
C 5664 2163 4691 2880 3936 3366
L 3578 3059
z
M 442 4928
L 442 4435
L 3290 4435
C 2656 3341 1555 2259 282 1632
C 384 1523 531 1331 608 1210
C 1498 1677 2291 2336 2938 3078
L 2938 -499
L 3456 -499
L 3456 3738
C 3622 3962 3770 4198 3904 4435
L 5958 4435
L 5958 4928
L 442 4928
z
" transform="scale(0.015625)"/>
      <path id="NotoSansCJKjp-Regular-662f" d="M 1510 3885
L 4845 3885
L 4845 3360
L 1510 3360
L 1510 3885
z
M 1510 4749
L 4845 4749
L 4845 4230
L 1510 4230
L 1510 4749
z
M 1050 5114
L 1050 2995
L 5331 2995
L 5331 5114
L 1050 5114
z
M 1478 1914
C 1312 979 902 256 224 -186
C 333 -256 518 -435 589 -518
C 1011 -218 1344 192 1587 698
C 2112 -186 2938 -384 4230 -384
L 5984 -384
C 6010 -250 6086 -38 6163 77
C 5830 70 4493 64 4250 70
C 3981 70 3725 77 3494 102
L 3494 986
L 5619 986
L 5619 1408
L 3494 1408
L 3494 2125
L 6035 2125
L 6035 2554
L 378 2554
L 378 2125
L 3014 2125
L 3014 186
C 2458 326 2048 627 1798 1216
C 1862 1414 1914 1626 1958 1850
L 1478 1914
z
" transform="scale(0.015625)"/>
      <path id="NotoSansCJKjp-Regular-20" transform="scale(0.015625)"/>
      <path id="NotoSansCJKjp-Regular-50" d="M 646 0
L 1235 0
L 1235 1869
L 2010 1869
C 3040 1869 3738 2323 3738 3315
C 3738 4339 3034 4691 1984 4691
L 646 4691
L 646 0
z
M 1235 2349
L 1235 4211
L 1907 4211
C 2733 4211 3149 4000 3149 3315
C 3149 2643 2758 2349 1933 2349
L 1235 2349
z
" transform="scale(0.015625)"/>
      <path id="NotoSansCJKjp-Regular-41" d="M 26 0
L 621 0
L 1075 1434
L 2790 1434
L 3238 0
L 3866 0
L 2272 4691
L 1613 4691
L 26 0
z
M 1222 1901
L 1453 2624
C 1619 3155 1773 3661 1920 4211
L 1946 4211
C 2099 3667 2246 3155 2419 2624
L 2643 1901
L 1222 1901
z
" transform="scale(0.015625)"/>
      <path id="NotoSansCJKjp-Regular-54" d="M 1619 0
L 2214 0
L 2214 4192
L 3635 4192
L 3635 4691
L 198 4691
L 198 4192
L 1619 4192
L 1619 0
z
" transform="scale(0.015625)"/>
      <path id="NotoSansCJKjp-Regular-48" d="M 646 0
L 1235 0
L 1235 2214
L 3424 2214
L 3424 0
L 4019 0
L 4019 4691
L 3424 4691
L 3424 2726
L 1235 2726
L 1235 4691
L 646 4691
L 646 0
z
" transform="scale(0.015625)"/>
      <path id="NotoSansCJKjp-Regular-5df2" d="M 595 4979
L 595 4499
L 4781 4499
L 4781 2816
L 1421 2816
L 1421 3872
L 934 3872
L 934 653
C 934 -141 1261 -333 2298 -333
C 2541 -333 4448 -333 4704 -333
C 5760 -333 5971 19 6093 1197
C 5952 1222 5734 1306 5606 1395
C 5517 365 5408 141 4710 141
C 4275 141 2611 141 2272 141
C 1568 141 1421 237 1421 646
L 1421 2342
L 4781 2342
L 4781 2022
L 5280 2022
L 5280 4979
L 595 4979
z
" transform="scale(0.015625)"/>
      <path id="NotoSansCJKjp-Regular-90e8" d="M 269 2893
L 269 2458
L 3578 2458
L 3578 2893
L 269 2893
z
M 832 4019
C 960 3686 1075 3258 1101 2970
L 1530 3078
C 1491 3354 1376 3782 1229 4102
L 832 4019
z
M 2662 4147
C 2586 3827 2432 3354 2304 3059
L 2694 2950
C 2829 3232 2982 3661 3123 4038
L 2662 4147
z
M 3840 4998
L 3840 -512
L 4307 -512
L 4307 4544
L 5523 4544
C 5318 4032 5043 3334 4768 2797
C 5421 2234 5606 1747 5613 1350
C 5613 1114 5562 928 5427 838
C 5350 794 5254 774 5146 768
C 5024 762 4838 762 4646 781
C 4730 640 4774 442 4781 307
C 4973 294 5178 294 5344 314
C 5504 333 5645 378 5760 454
C 5984 602 6080 902 6080 1299
C 6074 1754 5914 2259 5267 2861
C 5568 3443 5901 4186 6157 4794
L 5811 5018
L 5728 4998
L 3840 4998
z
M 1715 5350
L 1715 4666
L 429 4666
L 429 4237
L 3488 4237
L 3488 4666
L 2182 4666
L 2182 5350
L 1715 5350
z
M 698 1894
L 698 -518
L 1146 -518
L 1146 -141
L 2752 -141
L 2752 -486
L 3219 -486
L 3219 1894
L 698 1894
z
M 1146 288
L 1146 1472
L 2752 1472
L 2752 288
L 1146 288
z
" transform="scale(0.015625)"/>
      <path id="NotoSansCJKjp-Regular-7f72" d="M 4160 4768
L 5242 4768
L 5242 4154
L 4160 4154
L 4160 4768
z
M 2656 4768
L 3718 4768
L 3718 4154
L 2656 4154
L 2656 4768
z
M 1184 4768
L 2214 4768
L 2214 4154
L 1184 4154
L 1184 4768
z
M 5344 3578
C 5146 3386 4928 3200 4685 3021
L 4685 3354
L 3238 3354
L 3238 3795
L 5722 3795
L 5722 5126
L 730 5126
L 730 3795
L 2771 3795
L 2771 3354
L 1005 3354
L 1005 2970
L 2771 2970
L 2771 2483
L 358 2483
L 358 2080
L 2982 2080
C 2112 1709 1158 1414 218 1216
C 301 1120 416 902 461 800
C 877 902 1293 1024 1709 1158
L 1709 -506
L 2150 -506
L 2150 -294
L 4998 -294
L 4998 -486
L 5466 -486
L 5466 1651
L 3040 1651
C 3354 1786 3654 1926 3949 2080
L 6054 2080
L 6054 2483
L 4640 2483
C 5043 2739 5408 3027 5728 3334
L 5344 3578
z
M 3814 2483
L 3238 2483
L 3238 2970
L 4608 2970
C 4365 2797 4096 2637 3814 2483
z
M 2150 531
L 4998 531
L 4998 64
L 2150 64
L 2150 531
z
M 2150 870
L 2150 1293
L 4998 1293
L 4998 870
L 2150 870
z
" transform="scale(0.015625)"/>
     </defs>
     <use xlink:href="#NotoSansCJKjp-Regular-4e0d"/>
     <use xlink:href="#NotoSansCJKjp-Regular-662f" transform="translate(99.999985 0)"/>
     <use xlink:href="#NotoSansCJKjp-Regular-20" transform="translate(199.999969 0)"/>
     <use xlink:href="#NotoSansCJKjp-Regular-50" transform="translate(222.399963 0)"/>
     <use xlink:href="#NotoSansCJKjp-Regular-41" transform="translate(285.699951 0)"/>
     <use xlink:href="#NotoSansCJKjp-Regular-54" transform="translate(346.499939 0)"/>
     <use xlink:href="#NotoSansCJKjp-Regular-48" transform="translate(406.399933 0)"/>
     <use xlink:href="#NotoSansCJKjp-Regular-20" transform="translate(479.199921 0)"/>
     <use xlink:href="#NotoSansCJKjp-Regular-5df2" transform="translate(501.599915 0)"/>
     <use xlink:href="#NotoSansCJKjp-Regular-90e8" transform="translate(601.599899 0)"/>
     <use xlink:href="#NotoSansCJKjp-Regular-7f72" transform="translate(701.599884 0)"/>
     <use xlink:href="#NotoSansCJKjp-Regular-66f4" transform="translate(801.599869 0)"/>
     <use xlink:href="#NotoSansCJKjp-Regular-65b0" transform="translate(901.599854 0)"/>
    </g>
   </g>
   <g id="patch_5">
    <path d="M 188.55 133.740203
Q 188.55 140.821099 188.55 145.665927
" style="fill: none; stroke: #6e7978; stroke-width: 2; stroke-linecap: round"/>
    <path d="M 191.95 138.865927
L 188.55 145.665927
L 185.15 138.865927
" style="fill: none; stroke: #6e7978; stroke-width: 2; stroke-linecap: round"/>
   </g>
   <g id="text_4">
    <!-- 受影响的支持进入复核 -->
    <g style="fill: #bd694b" transform="translate(27.1485 197.902512) scale(0.185 -0.185)">
     <defs>
      <path id="NotoSansCJKjp-Regular-53d7" d="M 5248 5402
C 4147 5165 2176 4998 525 4928
C 570 4819 627 4634 634 4512
C 2304 4582 4294 4742 5581 5011
L 5248 5402
z
M 2765 4518
C 2912 4218 3046 3814 3085 3565
L 3533 3680
C 3494 3930 3347 4320 3194 4614
L 2765 4518
z
M 4947 4627
C 4806 4294 4563 3846 4358 3526
L 1549 3526
L 1926 3654
C 1856 3885 1658 4237 1478 4499
L 1062 4378
C 1229 4115 1414 3763 1485 3526
L 461 3526
L 461 2221
L 915 2221
L 915 3104
L 5472 3104
L 5472 2221
L 5946 2221
L 5946 3526
L 4845 3526
C 5043 3814 5261 4160 5440 4480
L 4947 4627
z
M 4442 1933
C 4141 1478 3725 1114 3219 819
C 2694 1120 2272 1491 1958 1933
L 4442 1933
z
M 1242 2381
L 1242 1933
L 1510 1933
L 1446 1907
C 1779 1382 2221 941 2752 582
C 2042 262 1203 58 333 -64
C 429 -166 557 -371 608 -493
C 1542 -339 2438 -90 3213 307
C 3936 -83 4806 -352 5773 -493
C 5837 -352 5965 -154 6067 -45
C 5178 64 4371 269 3686 582
C 4314 986 4826 1510 5158 2195
L 4838 2400
L 4749 2381
L 1242 2381
z
" transform="scale(0.015625)"/>
      <path id="NotoSansCJKjp-Regular-5f71" d="M 1203 1939
L 3078 1939
L 3078 1344
L 1203 1344
L 1203 1939
z
M 1165 4141
L 3117 4141
L 3117 3738
L 1165 3738
L 1165 4141
z
M 1165 4826
L 3117 4826
L 3117 4435
L 1165 4435
L 1165 4826
z
M 979 838
C 819 499 557 154 262 -83
C 365 -141 544 -262 621 -326
C 909 -64 1210 339 1389 736
L 979 838
z
M 5421 5267
C 5062 4774 4397 4250 3840 3949
C 3962 3859 4102 3712 4186 3610
C 4781 3955 5446 4518 5875 5082
L 5421 5267
z
M 5594 3494
C 5197 2976 4474 2426 3872 2106
C 3994 2016 4134 1869 4218 1766
C 4858 2131 5574 2714 6035 3302
L 5594 3494
z
M 730 5133
L 730 3430
L 1901 3430
L 1901 3040
L 294 3040
L 294 2656
L 3942 2656
L 3942 3040
L 2342 3040
L 2342 3430
L 3571 3430
L 3571 5133
L 730 5133
z
M 781 2278
L 781 1005
L 1901 1005
L 1901 -45
C 1901 -109 1888 -128 1805 -128
C 1722 -141 1485 -134 1197 -128
C 1261 -237 1344 -397 1376 -512
C 1734 -512 1971 -512 2138 -442
C 2298 -378 2342 -269 2342 -51
L 2342 1005
L 3520 1005
L 3520 2278
L 781 2278
z
M 5760 1683
C 5357 979 4595 346 3795 -32
C 3661 211 3366 570 3117 832
L 2752 646
C 3002 378 3290 0 3424 -243
L 3629 -128
C 3744 -237 3878 -397 3955 -506
C 4877 -64 5722 659 6227 1510
L 5760 1683
z
" transform="scale(0.015625)"/>
      <path id="NotoSansCJKjp-Regular-54cd" d="M 474 4768
L 474 576
L 902 576
L 902 1190
L 2074 1190
L 2074 4768
L 474 4768
z
M 902 4320
L 1664 4320
L 1664 1638
L 902 1638
L 902 4320
z
M 4006 5389
C 3930 5069 3789 4634 3648 4301
L 2554 4301
L 2554 -467
L 3008 -467
L 3008 3878
L 5510 3878
L 5510 58
C 5510 -26 5485 -51 5402 -51
C 5318 -58 5056 -58 4774 -45
C 4832 -166 4902 -365 4922 -486
C 5318 -493 5587 -480 5760 -403
C 5926 -326 5978 -192 5978 51
L 5978 4301
L 4147 4301
C 4282 4595 4429 4960 4557 5274
L 4006 5389
z
M 3878 2790
L 4640 2790
L 4640 1376
L 3878 1376
L 3878 2790
z
M 3539 3149
L 3539 653
L 3878 653
L 3878 1018
L 4986 1018
L 4986 3149
L 3539 3149
z
" transform="scale(0.015625)"/>
      <path id="NotoSansCJKjp-Regular-7684" d="M 3533 2707
C 3885 2240 4320 1600 4512 1210
L 4922 1466
C 4710 1843 4269 2464 3904 2918
L 3533 2707
z
M 1536 5389
C 1485 5082 1376 4659 1274 4346
L 557 4346
L 557 -346
L 998 -346
L 998 160
L 2784 160
L 2784 4346
L 1715 4346
C 1824 4621 1946 4979 2054 5299
L 1536 5389
z
M 998 3917
L 2342 3917
L 2342 2566
L 998 2566
L 998 3917
z
M 998 595
L 998 2144
L 2342 2144
L 2342 595
L 998 595
z
M 3827 5402
C 3622 4518 3277 3635 2835 3066
C 2950 3002 3149 2867 3238 2790
C 3456 3098 3661 3488 3840 3923
L 5478 3923
C 5402 1357 5299 371 5094 154
C 5018 64 4947 45 4819 45
C 4672 45 4288 51 3866 83
C 3955 -38 4013 -243 4026 -378
C 4384 -397 4762 -410 4979 -390
C 5210 -365 5350 -314 5498 -122
C 5754 192 5843 1184 5939 4122
C 5946 4186 5946 4365 5946 4365
L 4013 4365
C 4115 4666 4211 4986 4288 5299
L 3827 5402
z
" transform="scale(0.015625)"/>
      <path id="NotoSansCJKjp-Regular-652f" d="M 2938 5376
L 2938 4397
L 493 4397
L 493 3923
L 2938 3923
L 2938 2931
L 787 2931
L 787 2464
L 1811 2464
L 1421 2323
C 1747 1664 2189 1126 2746 691
C 2016 326 1158 90 250 -51
C 346 -160 474 -384 518 -512
C 1478 -333 2400 -51 3187 384
C 3917 -64 4806 -371 5850 -531
C 5920 -390 6048 -186 6157 -70
C 5190 58 4352 307 3654 678
C 4390 1184 4973 1862 5338 2758
L 5005 2950
L 4915 2931
L 3437 2931
L 3437 3923
L 5894 3923
L 5894 4397
L 3437 4397
L 3437 5376
L 2938 5376
z
M 1875 2464
L 4640 2464
C 4314 1830 3821 1331 3213 954
C 2624 1350 2176 1856 1875 2464
z
" transform="scale(0.015625)"/>
      <path id="NotoSansCJKjp-Regular-6301" d="M 2867 1306
C 3142 960 3450 474 3571 166
L 3968 416
C 3834 723 3514 1184 3238 1517
L 2867 1306
z
M 4006 5344
L 4006 4544
L 2643 4544
L 2643 4109
L 4006 4109
L 4006 3296
L 2317 3296
L 2317 2854
L 4851 2854
L 4851 2138
L 2387 2138
L 2387 1696
L 4851 1696
L 4851 70
C 4851 -13 4826 -45 4730 -45
C 4634 -51 4294 -58 3936 -38
C 4000 -173 4064 -371 4083 -506
C 4557 -506 4870 -499 5056 -429
C 5254 -352 5312 -218 5312 70
L 5312 1696
L 6106 1696
L 6106 2138
L 5312 2138
L 5312 2854
L 6144 2854
L 6144 3296
L 4467 3296
L 4467 4109
L 5837 4109
L 5837 4544
L 4467 4544
L 4467 5344
L 4006 5344
z
M 1094 5370
L 1094 4083
L 269 4083
L 269 3635
L 1094 3635
L 1094 2246
C 749 2138 429 2048 179 1978
L 301 1504
L 1094 1760
L 1094 70
C 1094 -26 1062 -51 986 -51
C 909 -51 659 -51 384 -45
C 442 -179 506 -378 518 -493
C 922 -499 1171 -480 1325 -403
C 1485 -326 1542 -198 1542 64
L 1542 1907
L 2240 2138
L 2176 2579
L 1542 2381
L 1542 3635
L 2221 3635
L 2221 4083
L 1542 4083
L 1542 5370
L 1094 5370
z
" transform="scale(0.015625)"/>
      <path id="NotoSansCJKjp-Regular-8fdb" d="M 518 4979
C 870 4659 1299 4192 1498 3898
L 1869 4205
C 1658 4486 1216 4928 864 5242
L 518 4979
z
M 4608 5242
L 4608 4211
L 3552 4211
L 3552 5242
L 3078 5242
L 3078 4211
L 2170 4211
L 2170 3750
L 3078 3750
L 3078 3002
L 3066 2605
L 2131 2605
L 2131 2144
L 3014 2144
C 2918 1658 2707 1184 2227 819
C 2330 749 2509 570 2573 474
C 3142 909 3392 1530 3488 2144
L 4608 2144
L 4608 512
L 5088 512
L 5088 2144
L 6042 2144
L 6042 2605
L 5088 2605
L 5088 3750
L 5914 3750
L 5914 4211
L 5088 4211
L 5088 5242
L 4608 5242
z
M 3552 3750
L 4608 3750
L 4608 2605
L 3539 2605
L 3552 2995
L 3552 3750
z
M 1677 3059
L 320 3059
L 320 2611
L 1203 2611
L 1203 774
C 915 666 582 384 243 13
L 563 -422
C 896 13 1210 390 1427 390
C 1568 390 1773 179 2042 13
C 2483 -269 3021 -339 3814 -339
C 4422 -339 5574 -301 6029 -275
C 6035 -134 6112 96 6170 224
C 5549 154 4582 102 3827 102
C 3104 102 2566 147 2144 410
C 1933 544 1798 666 1677 736
L 1677 3059
z
" transform="scale(0.015625)"/>
      <path id="NotoSansCJKjp-Regular-5165" d="M 2842 3731
C 2451 1920 1651 627 230 -115
C 358 -205 582 -403 666 -499
C 1946 250 2758 1427 3238 3085
C 3533 1869 4218 461 5798 -493
C 5882 -371 6074 -173 6189 -83
C 3661 1414 3514 3846 3514 4986
L 1459 4986
L 1459 4499
L 3040 4499
C 3053 4256 3078 3981 3123 3680
L 2842 3731
z
" transform="scale(0.015625)"/>
      <path id="NotoSansCJKjp-Regular-590d" d="M 2272 2835
L 4186 2835
L 4186 2387
L 2272 2387
L 2272 2835
z
M 2272 3590
L 4186 3590
L 4186 3155
L 2272 3155
L 2272 3590
z
M 2221 5389
C 1965 4730 1517 4102 1011 3699
C 1120 3629 1306 3450 1382 3366
C 1536 3501 1683 3661 1830 3834
L 1830 2048
L 2547 2048
C 2195 1549 1626 1120 1043 838
C 1152 762 1312 595 1382 506
C 1651 653 1920 838 2176 1050
C 2368 806 2598 582 2861 390
C 2330 122 1715 -58 1107 -154
C 1190 -250 1293 -422 1331 -538
C 2003 -410 2675 -198 3251 122
C 3763 -179 4365 -397 5011 -518
C 5082 -397 5203 -205 5312 -102
C 4717 -19 4154 147 3667 384
C 4102 691 4461 1075 4698 1555
L 4397 1709
L 4307 1690
L 2810 1690
C 2906 1805 2989 1926 3066 2048
L 4640 2048
L 4640 3930
L 1907 3930
C 2003 4051 2099 4186 2189 4320
L 4960 4320
L 4960 4736
L 2438 4736
C 2534 4909 2618 5082 2688 5261
L 2221 5389
z
M 2458 1299
L 2483 1325
L 4032 1325
C 3834 1050 3565 813 3251 608
C 2925 806 2656 1043 2458 1299
z
" transform="scale(0.015625)"/>
      <path id="NotoSansCJKjp-Regular-6838" d="M 5114 3488
C 4858 3053 4512 2643 4096 2272
C 3942 2419 3744 2592 3526 2765
C 3821 3091 4179 3558 4467 3949
L 4442 3962
L 6125 3962
L 6125 4403
L 4570 4403
L 4570 5363
L 4102 5363
L 4102 4403
L 2496 4403
L 2496 3962
L 3878 3962
C 3686 3648 3430 3290 3206 3008
L 2874 3245
L 2592 2925
C 2976 2656 3437 2272 3738 1971
C 3341 1670 2906 1408 2458 1216
C 2566 1126 2701 973 2765 864
C 3898 1402 4922 2298 5530 3315
L 5114 3488
z
M 5651 2317
C 4992 1203 3757 339 2285 -115
C 2400 -224 2515 -390 2579 -506
C 3373 -237 4096 141 4704 608
C 5120 230 5568 -230 5805 -531
L 6195 -237
C 5939 70 5466 525 5043 890
C 5459 1261 5805 1670 6080 2131
L 5651 2317
z
M 1274 5376
L 1274 4006
L 333 4006
L 333 3552
L 1222 3552
C 1024 2675 614 1664 205 1120
C 288 1011 403 826 454 698
C 762 1114 1050 1798 1274 2502
L 1274 -506
L 1722 -506
L 1722 2496
C 1933 2157 2182 1741 2291 1517
L 2560 1888
C 2445 2074 1907 2842 1722 3066
L 1722 3552
L 2483 3552
L 2483 4006
L 1722 4006
L 1722 5376
L 1274 5376
z
" transform="scale(0.015625)"/>
     </defs>
     <use xlink:href="#NotoSansCJKjp-Regular-53d7"/>
     <use xlink:href="#NotoSansCJKjp-Regular-5f71" transform="translate(99.999985 0)"/>
     <use xlink:href="#NotoSansCJKjp-Regular-54cd" transform="translate(199.999969 0)"/>
     <use xlink:href="#NotoSansCJKjp-Regular-7684" transform="translate(299.999954 0)"/>
     <use xlink:href="#NotoSansCJKjp-Regular-652f" transform="translate(399.999939 0)"/>
     <use xlink:href="#NotoSansCJKjp-Regular-6301" transform="translate(499.999924 0)"/>
     <use xlink:href="#NotoSansCJKjp-Regular-8fdb" transform="translate(599.999908 0)"/>
     <use xlink:href="#NotoSansCJKjp-Regular-5165" transform="translate(699.999893 0)"/>
     <use xlink:href="#NotoSansCJKjp-Regular-590d" transform="translate(799.999878 0)"/>
     <use xlink:href="#NotoSansCJKjp-Regular-6838" transform="translate(899.999863 0)"/>
    </g>
   </g>
   <g id="text_5">
    <!-- 目标确认 → 模式选择 -->
    <g style="fill: #203e43" transform="translate(27.1485 226.010592) scale(0.16 -0.16)">
     <defs>
      <path id="NotoSansCJKjp-Regular-76ee" d="M 1491 3008
L 4858 3008
L 4858 1952
L 1491 1952
L 1491 3008
z
M 1491 3469
L 1491 4506
L 4858 4506
L 4858 3469
L 1491 3469
z
M 1491 1491
L 4858 1491
L 4858 429
L 1491 429
L 1491 1491
z
M 1011 4979
L 1011 -474
L 1491 -474
L 1491 -38
L 4858 -38
L 4858 -474
L 5357 -474
L 5357 4979
L 1011 4979
z
" transform="scale(0.015625)"/>
      <path id="NotoSansCJKjp-Regular-6807" d="M 2982 4890
L 2982 4435
L 5773 4435
L 5773 4890
L 2982 4890
z
M 4986 2080
C 5286 1440 5587 608 5683 102
L 6125 262
C 6016 768 5709 1581 5395 2208
L 4986 2080
z
M 3142 2189
C 2976 1510 2688 826 2330 365
C 2438 314 2630 179 2720 115
C 3066 602 3386 1350 3584 2093
L 3142 2189
z
M 2701 3360
L 2701 2906
L 4070 2906
L 4070 115
C 4070 32 4045 6 3949 0
C 3866 0 3565 -6 3232 6
C 3296 -141 3366 -346 3386 -486
C 3834 -486 4128 -474 4314 -397
C 4499 -314 4557 -166 4557 109
L 4557 2906
L 6118 2906
L 6118 3360
L 2701 3360
z
M 1293 5376
L 1293 4019
L 314 4019
L 314 3571
L 1190 3571
C 979 2778 563 1856 154 1376
C 243 1254 371 1056 422 928
C 742 1338 1056 2010 1293 2701
L 1293 -506
L 1773 -506
L 1773 2842
C 1990 2528 2246 2131 2355 1926
L 2637 2304
C 2509 2483 1958 3187 1773 3398
L 1773 3571
L 2611 3571
L 2611 4019
L 1773 4019
L 1773 5376
L 1293 5376
z
" transform="scale(0.015625)"/>
      <path id="NotoSansCJKjp-Regular-786e" d="M 314 5024
L 314 4582
L 1107 4582
C 947 3469 666 2426 173 1747
C 269 1651 422 1427 474 1331
C 595 1498 698 1683 800 1882
L 800 -166
L 1235 -166
L 1235 378
L 2490 378
L 2490 3117
L 1267 3117
C 1395 3578 1498 4070 1574 4582
L 2707 4582
L 2707 5024
L 314 5024
z
M 1235 2688
L 2054 2688
L 2054 806
L 1235 806
L 1235 2688
z
M 4218 1498
L 3405 1498
C 3418 1690 3424 1875 3424 2048
L 3424 2246
L 4218 2246
L 4218 1498
z
M 4640 1498
L 4640 2246
L 5472 2246
L 5472 1498
L 4640 1498
z
M 3680 5382
C 3430 4627 2989 3891 2490 3418
C 2598 3341 2778 3181 2848 3098
L 2976 3238
L 2976 2048
C 2976 1331 2906 422 2285 -224
C 2381 -275 2560 -435 2624 -531
C 3053 -90 3258 499 3354 1075
L 5472 1075
L 5472 45
C 5472 -45 5446 -70 5357 -77
C 5267 -83 4947 -83 4621 -70
C 4685 -198 4755 -390 4768 -525
C 5216 -525 5517 -518 5696 -442
C 5875 -371 5933 -224 5933 38
L 5933 3744
L 4781 3744
C 4973 4019 5171 4358 5312 4653
L 4998 4864
L 4928 4845
L 3962 4845
C 4019 4986 4077 5126 4128 5267
L 3680 5382
z
M 4218 2630
L 3424 2630
L 3424 3328
L 4218 3328
L 4218 2630
z
M 4640 2630
L 4640 3328
L 5472 3328
L 5472 2630
L 4640 2630
z
M 3424 3744
L 3360 3744
C 3507 3962 3642 4198 3770 4442
L 4691 4442
C 4582 4198 4429 3936 4294 3744
L 3424 3744
z
" transform="scale(0.015625)"/>
      <path id="NotoSansCJKjp-Regular-8ba4" d="M 909 4960
C 1229 4666 1664 4243 1869 4000
L 2208 4352
C 1990 4589 1549 4979 1229 5254
L 909 4960
z
M 3981 5370
C 3968 3200 4000 954 2381 -179
C 2509 -256 2662 -403 2746 -512
C 3603 109 4032 1030 4243 2093
C 4486 1190 4941 109 5843 -506
C 5926 -384 6067 -243 6195 -154
C 4794 749 4499 2778 4416 3398
C 4461 4038 4461 4710 4467 5370
L 3981 5370
z
M 301 3366
L 301 2906
L 1376 2906
L 1376 710
C 1376 403 1158 186 1024 96
C 1114 13 1248 -154 1293 -256
C 1382 -134 1555 0 2778 858
C 2733 954 2669 1133 2637 1261
L 1843 730
L 1843 3366
L 301 3366
z
" transform="scale(0.015625)"/>
      <path id="NotoSansCJKjp-Regular-2192" d="M 5190 2650
L 256 2650
L 256 2214
L 5190 2214
C 4864 1965 4442 1562 4154 1165
L 4538 941
C 4966 1504 5606 2067 6176 2432
C 5606 2797 4966 3360 4538 3923
L 4154 3699
C 4442 3302 4864 2899 5190 2650
z
" transform="scale(0.015625)"/>
      <path id="NotoSansCJKjp-Regular-6a21" d="M 3021 2669
L 5248 2669
L 5248 2208
L 3021 2208
L 3021 2669
z
M 3021 3469
L 5248 3469
L 5248 3021
L 3021 3021
L 3021 3469
z
M 4685 5376
L 4685 4845
L 3699 4845
L 3699 5376
L 3245 5376
L 3245 4845
L 2304 4845
L 2304 4435
L 3245 4435
L 3245 3955
L 3699 3955
L 3699 4435
L 4685 4435
L 4685 3955
L 5152 3955
L 5152 4435
L 6048 4435
L 6048 4845
L 5152 4845
L 5152 5376
L 4685 5376
z
M 2573 3834
L 2573 1850
L 3878 1850
C 3853 1658 3827 1485 3782 1318
L 2176 1318
L 2176 909
L 3642 909
C 3398 416 2938 77 1997 -128
C 2086 -224 2208 -403 2253 -512
C 3366 -243 3885 218 4141 896
C 4461 192 5056 -288 5888 -512
C 5952 -390 6080 -211 6182 -115
C 5459 38 4909 390 4602 909
L 6035 909
L 6035 1318
L 4262 1318
C 4294 1485 4326 1664 4346 1850
L 5715 1850
L 5715 3834
L 2573 3834
z
M 1120 5376
L 1120 4141
L 320 4141
L 320 3693
L 1120 3693
L 1120 3686
C 947 2816 576 1798 205 1261
C 288 1146 403 934 461 794
C 704 1171 934 1754 1120 2381
L 1120 -506
L 1581 -506
L 1581 2790
C 1754 2451 1952 2042 2035 1830
L 2342 2176
C 2234 2374 1747 3174 1581 3424
L 1581 3693
L 2240 3693
L 2240 4141
L 1581 4141
L 1581 5376
L 1120 5376
z
" transform="scale(0.015625)"/>
      <path id="NotoSansCJKjp-Regular-5f0f" d="M 4538 5062
C 4870 4832 5267 4486 5459 4256
L 5792 4557
C 5600 4781 5190 5107 4864 5331
L 4538 5062
z
M 3616 5350
C 3616 4954 3629 4563 3648 4179
L 352 4179
L 352 3712
L 3680 3712
C 3846 1331 4384 -525 5434 -525
C 5926 -525 6106 -198 6189 922
C 6054 973 5875 1082 5766 1190
C 5722 333 5651 -26 5472 -26
C 4838 -26 4339 1542 4179 3712
L 6061 3712
L 6061 4179
L 4154 4179
C 4134 4557 4128 4947 4128 5350
L 3616 5350
z
M 378 154
L 531 -320
C 1350 -141 2528 128 3616 384
L 3578 819
L 2208 525
L 2208 2291
L 3405 2291
L 3405 2758
L 576 2758
L 576 2291
L 1728 2291
L 1728 429
L 378 154
z
" transform="scale(0.015625)"/>
      <path id="NotoSansCJKjp-Regular-9009" d="M 390 4896
C 762 4582 1197 4134 1382 3821
L 1779 4122
C 1574 4429 1133 4864 755 5158
L 390 4896
z
M 2854 5184
C 2701 4614 2432 4051 2086 3674
C 2202 3616 2406 3488 2496 3418
C 2643 3597 2784 3821 2912 4070
L 3859 4070
L 3859 3136
L 2048 3136
L 2048 2707
L 3206 2707
C 3098 1869 2835 1261 1875 922
C 1978 832 2118 653 2170 531
C 3245 954 3565 1690 3686 2707
L 4346 2707
L 4346 1222
C 4346 736 4454 595 4934 595
C 5030 595 5466 595 5562 595
C 5965 595 6093 800 6138 1613
C 6003 1645 5805 1715 5715 1805
C 5696 1133 5670 1043 5510 1043
C 5421 1043 5069 1043 5005 1043
C 4838 1043 4819 1062 4819 1222
L 4819 2707
L 6086 2707
L 6086 3136
L 4339 3136
L 4339 4070
L 5818 4070
L 5818 4486
L 4339 4486
L 4339 5350
L 3859 5350
L 3859 4486
L 3104 4486
C 3187 4678 3258 4883 3315 5088
L 2854 5184
z
M 1606 2918
L 358 2918
L 358 2470
L 1146 2470
L 1146 531
C 870 403 576 173 288 -96
L 608 -512
C 973 -115 1318 218 1555 218
C 1696 218 1894 32 2144 -122
C 2566 -371 3098 -435 3840 -435
C 4467 -435 5549 -403 6048 -371
C 6054 -230 6131 6 6182 128
C 5549 64 4576 19 3846 19
C 3168 19 2630 58 2234 294
C 1926 474 1779 627 1606 640
L 1606 2918
z
" transform="scale(0.015625)"/>
      <path id="NotoSansCJKjp-Regular-62e9" d="M 1133 5370
L 1133 4090
L 294 4090
L 294 3642
L 1133 3642
L 1133 2278
C 794 2176 480 2086 230 2016
L 352 1549
L 1133 1798
L 1133 77
C 1133 -6 1101 -32 1024 -38
C 947 -38 698 -45 422 -32
C 486 -166 544 -365 563 -486
C 973 -486 1222 -480 1382 -397
C 1542 -320 1600 -186 1600 77
L 1600 1952
L 2342 2195
L 2278 2637
L 1600 2426
L 1600 3642
L 2362 3642
L 2362 4090
L 1600 4090
L 1600 5370
L 1133 5370
z
M 5146 4602
C 4915 4269 4602 3974 4237 3718
C 3904 3974 3622 4269 3405 4602
L 5146 4602
z
M 2534 5037
L 2534 4602
L 2944 4602
C 3181 4173 3494 3802 3866 3482
C 3366 3181 2803 2957 2259 2822
C 2349 2726 2464 2547 2515 2432
C 3098 2605 3693 2861 4224 3200
C 4723 2854 5306 2592 5939 2426
C 6003 2554 6138 2733 6234 2829
C 5632 2957 5082 3174 4608 3469
C 5114 3853 5542 4333 5818 4896
L 5530 5056
L 5446 5037
L 2534 5037
z
M 3968 2637
L 3968 2074
L 2669 2074
L 2669 1638
L 3968 1638
L 3968 979
L 2342 979
L 2342 544
L 3968 544
L 3968 -525
L 4448 -525
L 4448 544
L 6125 544
L 6125 979
L 4448 979
L 4448 1638
L 5664 1638
L 5664 2074
L 4448 2074
L 4448 2637
L 3968 2637
z
" transform="scale(0.015625)"/>
     </defs>
     <use xlink:href="#NotoSansCJKjp-Regular-76ee"/>
     <use xlink:href="#NotoSansCJKjp-Regular-6807" transform="translate(99.999985 0)"/>
     <use xlink:href="#NotoSansCJKjp-Regular-786e" transform="translate(199.999969 0)"/>
     <use xlink:href="#NotoSansCJKjp-Regular-8ba4" transform="translate(299.999954 0)"/>
     <use xlink:href="#NotoSansCJKjp-Regular-20" transform="translate(399.999939 0)"/>
     <use xlink:href="#NotoSansCJKjp-Regular-2192" transform="translate(422.399933 0)"/>
     <use xlink:href="#NotoSansCJKjp-Regular-20" transform="translate(522.399918 0)"/>
     <use xlink:href="#NotoSansCJKjp-Regular-6a21" transform="translate(544.799911 0)"/>
     <use xlink:href="#NotoSansCJKjp-Regular-5f0f" transform="translate(644.799896 0)"/>
     <use xlink:href="#NotoSansCJKjp-Regular-9009" transform="translate(744.799881 0)"/>
     <use xlink:href="#NotoSansCJKjp-Regular-62e9" transform="translate(844.799866 0)"/>
    </g>
   </g>
   <g id="text_6">
    <!-- → 当前整体主张 -->
    <g style="fill: #203e43" transform="translate(27.1485 248.497056) scale(0.16 -0.16)">
     <defs>
      <path id="NotoSansCJKjp-Regular-5f53" d="M 774 4922
C 1114 4467 1459 3846 1600 3430
L 2061 3642
C 1914 4045 1562 4646 1210 5094
L 774 4922
z
M 5126 5152
C 4941 4659 4582 3981 4307 3552
L 4723 3392
C 5011 3802 5370 4435 5645 4979
L 5126 5152
z
M 736 243
L 736 -237
L 5056 -237
L 5056 -518
L 5562 -518
L 5562 3110
L 3456 3110
L 3456 5376
L 2931 5376
L 2931 3110
L 864 3110
L 864 2630
L 5056 2630
L 5056 1702
L 1075 1702
L 1075 1242
L 5056 1242
L 5056 243
L 736 243
z
" transform="scale(0.015625)"/>
      <path id="NotoSansCJKjp-Regular-524d" d="M 3866 3290
L 3866 666
L 4314 666
L 4314 3290
L 3866 3290
z
M 5165 3482
L 5165 90
C 5165 -6 5133 -32 5030 -32
C 4922 -38 4576 -38 4186 -26
C 4256 -154 4333 -358 4358 -486
C 4851 -493 5178 -480 5370 -403
C 5568 -326 5638 -192 5638 83
L 5638 3482
L 5165 3482
z
M 4627 5408
C 4486 5094 4243 4672 4026 4365
L 2106 4365
L 2419 4480
C 2298 4736 2022 5114 1779 5382
L 1331 5222
C 1562 4960 1798 4614 1920 4365
L 339 4365
L 339 3923
L 6061 3923
L 6061 4365
L 4570 4365
C 4755 4627 4960 4947 5139 5242
L 4627 5408
z
M 2618 1926
L 2618 1280
L 1197 1280
L 1197 1926
L 2618 1926
z
M 2618 2304
L 1197 2304
L 1197 2938
L 2618 2938
L 2618 2304
z
M 742 3347
L 742 -480
L 1197 -480
L 1197 902
L 2618 902
L 2618 45
C 2618 -38 2592 -64 2502 -64
C 2419 -70 2125 -70 1798 -58
C 1862 -179 1933 -365 1965 -486
C 2394 -486 2682 -480 2854 -403
C 3034 -333 3085 -205 3085 38
L 3085 3347
L 742 3347
z
" transform="scale(0.015625)"/>
      <path id="NotoSansCJKjp-Regular-6574" d="M 1357 1139
L 1357 32
L 301 32
L 301 -371
L 6118 -371
L 6118 32
L 3430 32
L 3430 563
L 5274 563
L 5274 934
L 3430 934
L 3430 1427
L 5696 1427
L 5696 1824
L 730 1824
L 730 1427
L 2957 1427
L 2957 32
L 1818 32
L 1818 1139
L 1357 1139
z
M 4109 5376
C 3930 4742 3597 4154 3162 3770
L 3162 4282
L 2054 4282
L 2054 4608
L 3315 4608
L 3315 4960
L 2054 4960
L 2054 5376
L 1626 5376
L 1626 4960
L 365 4960
L 365 4608
L 1626 4608
L 1626 4282
L 550 4282
L 550 3110
L 1440 3110
C 1126 2790 646 2470 256 2304
C 346 2234 474 2093 538 1997
C 883 2176 1306 2496 1626 2822
L 1626 1997
L 2054 1997
L 2054 2784
C 2368 2611 2790 2362 2970 2227
L 3206 2547
C 3027 2650 2349 2989 2086 3110
L 3162 3110
L 3162 3725
C 3264 3642 3411 3494 3462 3411
C 3603 3546 3744 3699 3866 3878
C 4000 3590 4186 3296 4416 3021
C 4064 2714 3629 2490 3104 2330
C 3200 2253 3341 2074 3392 1978
C 3904 2163 4339 2400 4704 2714
C 5030 2406 5434 2138 5926 1958
C 5990 2067 6112 2246 6202 2336
C 5715 2483 5318 2720 4998 3002
C 5299 3347 5530 3757 5677 4269
L 6093 4269
L 6093 4659
L 4314 4659
C 4403 4858 4480 5069 4544 5280
L 4109 5376
z
M 947 3962
L 1626 3962
L 1626 3430
L 947 3430
L 947 3962
z
M 2054 3962
L 2752 3962
L 2752 3430
L 2054 3430
L 2054 3962
z
M 4122 4269
L 5216 4269
C 5101 3891 4928 3571 4698 3302
C 4435 3603 4243 3930 4109 4250
L 4122 4269
z
" transform="scale(0.015625)"/>
      <path id="NotoSansCJKjp-Regular-4f53" d="M 1606 5350
C 1286 4384 762 3424 192 2797
C 288 2688 429 2432 474 2323
C 666 2541 851 2790 1024 3066
L 1024 -499
L 1485 -499
L 1485 3872
C 1702 4307 1894 4768 2054 5222
L 1606 5350
z
M 2662 1120
L 2662 678
L 3718 678
L 3718 -474
L 4186 -474
L 4186 678
L 5216 678
L 5216 1120
L 4186 1120
L 4186 3334
C 4582 2221 5197 1146 5862 538
C 5952 666 6112 832 6227 915
C 5536 1472 4870 2547 4493 3622
L 6106 3622
L 6106 4083
L 4186 4083
L 4186 5357
L 3718 5357
L 3718 4083
L 1907 4083
L 1907 3622
L 3430 3622
C 3034 2534 2362 1446 1658 883
C 1766 800 1926 634 2003 518
C 2682 1133 3309 2189 3718 3315
L 3718 1120
L 2662 1120
z
" transform="scale(0.015625)"/>
      <path id="NotoSansCJKjp-Regular-4e3b" d="M 2394 5088
C 2784 4800 3232 4390 3488 4096
L 659 4096
L 659 3629
L 2938 3629
L 2938 2221
L 954 2221
L 954 1754
L 2938 1754
L 2938 173
L 358 173
L 358 -294
L 6067 -294
L 6067 173
L 3456 173
L 3456 1754
L 5478 1754
L 5478 2221
L 3456 2221
L 3456 3629
L 5741 3629
L 5741 4096
L 3661 4096
L 3968 4320
C 3712 4621 3194 5056 2784 5350
L 2394 5088
z
" transform="scale(0.015625)"/>
      <path id="NotoSansCJKjp-Regular-5f20" d="M 5414 5088
C 5056 4429 4461 3808 3827 3411
C 3936 3341 4122 3174 4198 3091
C 4838 3533 5478 4224 5882 4954
L 5414 5088
z
M 749 3693
C 717 3072 640 2253 563 1747
L 1843 1747
C 1779 595 1702 134 1587 19
C 1530 -38 1466 -51 1357 -51
C 1242 -51 928 -45 602 -19
C 678 -141 736 -320 742 -448
C 1069 -467 1389 -467 1555 -454
C 1754 -435 1875 -397 1990 -269
C 2176 -77 2253 480 2330 1984
C 2336 2048 2342 2182 2342 2182
L 1062 2182
C 1101 2502 1133 2880 1165 3238
L 2304 3238
L 2304 5133
L 595 5133
L 595 4685
L 1843 4685
L 1843 3693
L 749 3693
z
M 3034 -544
C 3136 -454 3315 -378 4589 160
C 4576 262 4563 467 4563 608
L 3597 243
L 3597 2432
L 4224 2432
C 4518 1190 5062 141 5888 -422
C 5965 -294 6112 -128 6221 -32
C 5466 422 4941 1357 4672 2432
L 6131 2432
L 6131 2893
L 3597 2893
L 3597 5248
L 3123 5248
L 3123 2893
L 2406 2893
L 2406 2432
L 3123 2432
L 3123 301
C 3123 45 2944 -77 2829 -134
C 2906 -230 3002 -429 3034 -544
z
" transform="scale(0.015625)"/>
     </defs>
     <use xlink:href="#NotoSansCJKjp-Regular-2192"/>
     <use xlink:href="#NotoSansCJKjp-Regular-20" transform="translate(99.999985 0)"/>
     <use xlink:href="#NotoSansCJKjp-Regular-5f53" transform="translate(122.399979 0)"/>
     <use xlink:href="#NotoSansCJKjp-Regular-524d" transform="translate(222.399963 0)"/>
     <use xlink:href="#NotoSansCJKjp-Regular-6574" transform="translate(322.399948 0)"/>
     <use xlink:href="#NotoSansCJKjp-Regular-4f53" transform="translate(422.399933 0)"/>
     <use xlink:href="#NotoSansCJKjp-Regular-4e3b" transform="translate(522.399918 0)"/>
     <use xlink:href="#NotoSansCJKjp-Regular-5f20" transform="translate(622.399902 0)"/>
    </g>
   </g>
   <g id="patch_6">
    <path d="M 188.55 272.118443
Q 188.55 279.199339 188.55 284.044167
" style="fill: none; stroke: #6e7978; stroke-width: 2; stroke-linecap: round"/>
    <path d="M 191.95 277.244167
L 188.55 284.044167
L 185.15 277.244167
" style="fill: none; stroke: #6e7978; stroke-width: 2; stroke-linecap: round"/>
   </g>
   <g id="text_7">
    <!-- 保留有效关系，再建立连接 -->
    <g style="fill: #666693" transform="translate(27.1485 336.280752) scale(0.185 -0.185)">
     <defs>
      <path id="NotoSansCJKjp-Regular-4fdd" d="M 2893 4646
L 5274 4646
L 5274 3469
L 2893 3469
L 2893 4646
z
M 2432 5075
L 2432 3034
L 3827 3034
L 3827 2240
L 1958 2240
L 1958 1798
L 3546 1798
C 3110 1120 2432 474 1773 147
C 1882 58 2029 -115 2106 -230
C 2733 134 3379 774 3827 1485
L 3827 -512
L 4307 -512
L 4307 1504
C 4736 800 5350 128 5939 -243
C 6022 -122 6170 45 6278 141
C 5658 474 5005 1120 4595 1798
L 6106 1798
L 6106 2240
L 4307 2240
L 4307 3034
L 5754 3034
L 5754 5075
L 2432 5075
z
M 1773 5357
C 1402 4390 787 3437 147 2822
C 230 2714 371 2458 416 2349
C 653 2586 883 2867 1107 3174
L 1107 -493
L 1568 -493
L 1568 3885
C 1818 4307 2042 4762 2221 5216
L 1773 5357
z
" transform="scale(0.015625)"/>
      <path id="NotoSansCJKjp-Regular-7559" d="M 1568 774
L 2957 774
L 2957 122
L 1568 122
L 1568 774
z
M 1568 1152
L 1568 1779
L 2957 1779
L 2957 1152
L 1568 1152
z
M 4864 774
L 4864 122
L 3418 122
L 3418 774
L 4864 774
z
M 4864 1152
L 3418 1152
L 3418 1779
L 4864 1779
L 4864 1152
z
M 1107 2176
L 1107 -512
L 1568 -512
L 1568 -275
L 4864 -275
L 4864 -486
L 5344 -486
L 5344 2176
L 1107 2176
z
M 3206 5024
L 3206 4614
L 3962 4614
C 3872 3744 3635 3072 2784 2701
C 2886 2624 3014 2464 3072 2355
C 4032 2803 4307 3584 4416 4614
L 5389 4614
C 5344 3533 5286 3123 5184 3014
C 5139 2957 5082 2944 4986 2950
C 4883 2950 4627 2950 4346 2976
C 4416 2861 4467 2688 4474 2554
C 4762 2541 5043 2534 5197 2547
C 5370 2566 5478 2611 5587 2733
C 5741 2912 5798 3424 5862 4819
C 5869 4883 5869 5024 5869 5024
L 3206 5024
z
M 1888 3987
C 2054 3814 2214 3610 2362 3398
L 1299 3136
L 1242 4499
C 1837 4627 2496 4806 2982 5005
L 2643 5357
C 2298 5184 1715 4998 1171 4864
L 755 4986
L 832 3021
L 262 2893
L 384 2432
L 2592 3021
C 2656 2906 2707 2797 2739 2701
L 3162 2925
C 3014 3296 2637 3814 2278 4186
L 1888 3987
z
" transform="scale(0.015625)"/>
      <path id="NotoSansCJKjp-Regular-6709" d="M 2502 5376
C 2426 5101 2336 4819 2221 4544
L 403 4544
L 403 4096
L 2022 4096
C 1613 3251 1024 2470 256 1946
C 346 1856 499 1683 563 1574
C 966 1862 1325 2208 1632 2598
L 1632 -506
L 2106 -506
L 2106 762
L 4787 762
L 4787 96
C 4787 0 4755 -38 4646 -38
C 4525 -45 4134 -51 3712 -32
C 3776 -166 3846 -365 3872 -493
C 4422 -493 4774 -493 4986 -422
C 5197 -339 5261 -192 5261 90
L 5261 3354
L 2150 3354
C 2298 3597 2426 3840 2541 4096
L 6010 4096
L 6010 4544
L 2733 4544
C 2829 4781 2912 5024 2989 5261
L 2502 5376
z
M 2106 1850
L 4787 1850
L 4787 1178
L 2106 1178
L 2106 1850
z
M 2106 2259
L 2106 2918
L 4787 2918
L 4787 2259
L 2106 2259
z
" transform="scale(0.015625)"/>
      <path id="NotoSansCJKjp-Regular-6548" d="M 1050 3859
C 864 3392 557 2925 218 2598
C 326 2534 518 2394 602 2317
C 934 2669 1286 3213 1504 3744
L 1050 3859
z
M 2195 3661
C 2470 3354 2771 2918 2893 2643
L 3277 2874
C 3149 3155 2842 3565 2560 3866
L 2195 3661
z
M 1626 5350
L 1626 4506
L 275 4506
L 275 4070
L 3482 4070
L 3482 4506
L 2093 4506
L 2093 5350
L 1626 5350
z
M 774 2182
C 1075 1933 1389 1632 1677 1331
C 1312 717 845 211 269 -147
C 378 -237 563 -422 634 -518
C 1171 -134 1632 365 2010 966
C 2278 659 2509 358 2656 109
L 3046 435
C 2867 717 2586 1062 2259 1408
C 2445 1773 2605 2170 2733 2592
L 2259 2701
C 2163 2368 2048 2054 1907 1760
C 1651 2016 1382 2253 1126 2464
L 774 2182
z
M 4166 3738
L 5261 3738
C 5146 2931 4966 2246 4691 1677
C 4442 2266 4262 2944 4141 3661
L 4166 3738
z
M 4064 5376
C 3885 4256 3571 3162 3053 2470
C 3168 2400 3360 2227 3437 2144
C 3590 2368 3731 2624 3859 2912
C 4000 2278 4179 1696 4416 1184
C 4051 634 3558 205 2886 -109
C 2982 -211 3123 -416 3168 -525
C 3795 -198 4282 211 4659 717
C 4973 198 5357 -224 5843 -518
C 5920 -390 6067 -211 6176 -122
C 5664 154 5261 595 4947 1158
C 5338 1850 5581 2694 5741 3738
L 6150 3738
L 6150 4186
L 4294 4186
C 4390 4544 4467 4922 4538 5306
L 4064 5376
z
" transform="scale(0.015625)"/>
      <path id="NotoSansCJKjp-Regular-5173" d="M 4378 5370
C 4237 5005 3968 4493 3750 4173
L 4141 4013
C 4371 4314 4646 4781 4877 5197
L 4378 5370
z
M 1574 5107
C 1837 4768 2106 4301 2214 3987
L 2637 4218
C 2522 4518 2240 4973 1965 5299
L 1574 5107
z
M 1075 2374
L 1075 1920
L 2880 1920
C 2778 1203 2374 410 877 -154
C 992 -250 1146 -422 1210 -531
C 2483 0 3034 698 3258 1395
C 3635 480 4250 -173 5158 -512
C 5229 -378 5370 -192 5485 -90
C 4493 218 3853 941 3520 1920
L 5338 1920
L 5338 2374
L 3411 2374
L 3411 2490
L 3411 3469
L 5082 3469
L 5082 3930
L 1318 3930
L 1318 3469
L 2918 3469
L 2918 2496
L 2918 2374
L 1075 2374
z
" transform="scale(0.015625)"/>
      <path id="NotoSansCJKjp-Regular-7cfb" d="M 1715 1222
C 1363 749 787 262 243 -51
C 371 -128 582 -288 678 -378
C 1197 -32 1805 512 2208 1043
L 1715 1222
z
M 4109 986
C 4666 582 5350 -6 5677 -371
L 6093 -64
C 5741 301 5037 864 4493 1248
L 4109 986
z
M 5286 5286
C 4179 5062 2208 4928 557 4883
C 602 4768 659 4576 672 4448
C 1235 4461 1843 4486 2445 4525
C 2195 4198 1882 3840 1594 3565
L 1158 3827
L 832 3533
C 1344 3232 1939 2790 2310 2445
C 2125 2291 1933 2150 1760 2016
L 358 2003
L 403 1517
L 2938 1581
L 2938 -512
L 3443 -512
L 3443 1594
L 5293 1645
C 5466 1459 5613 1286 5715 1139
L 6138 1427
C 5811 1862 5126 2509 4563 2957
L 4173 2707
C 4403 2522 4646 2298 4883 2074
L 2464 2029
C 3226 2618 4083 3398 4730 4077
L 4269 4326
C 3853 3846 3270 3270 2682 2765
C 2490 2938 2227 3136 1952 3328
C 2317 3661 2739 4122 3072 4525
L 3002 4563
C 3974 4634 4915 4736 5632 4877
L 5286 5286
z
" transform="scale(0.015625)"/>
      <path id="NotoSansCJKjp-Regular-ff0c" d="M 1005 -685
C 1677 -448 2112 77 2112 768
C 2112 1216 1920 1504 1568 1504
C 1306 1504 1082 1344 1082 1043
C 1082 742 1299 589 1562 589
L 1670 602
C 1638 160 1357 -141 864 -346
L 1005 -685
z
" transform="scale(0.015625)"/>
      <path id="NotoSansCJKjp-Regular-518d" d="M 1011 3910
L 1011 1485
L 256 1485
L 256 1037
L 1011 1037
L 1011 -525
L 1485 -525
L 1485 1037
L 4909 1037
L 4909 83
C 4909 -26 4870 -58 4749 -64
C 4640 -70 4224 -77 3802 -58
C 3878 -186 3949 -390 3981 -518
C 4531 -518 4890 -512 5101 -435
C 5312 -358 5382 -218 5382 77
L 5382 1037
L 6157 1037
L 6157 1485
L 5382 1485
L 5382 3910
L 3418 3910
L 3418 4538
L 5920 4538
L 5920 4986
L 493 4986
L 493 4538
L 2931 4538
L 2931 3910
L 1011 3910
z
M 4909 1485
L 3418 1485
L 3418 2278
L 4909 2278
L 4909 1485
z
M 1485 1485
L 1485 2278
L 2931 2278
L 2931 1485
L 1485 1485
z
M 4909 2701
L 3418 2701
L 3418 3469
L 4909 3469
L 4909 2701
z
M 1485 2701
L 1485 3469
L 2931 3469
L 2931 2701
L 1485 2701
z
" transform="scale(0.015625)"/>
      <path id="NotoSansCJKjp-Regular-5efa" d="M 2470 4864
L 2470 4480
L 3776 4480
L 3776 4026
L 2010 4026
L 2010 3635
L 3776 3635
L 3776 3162
L 2426 3162
L 2426 2771
L 3776 2771
L 3776 2298
L 2381 2298
L 2381 1926
L 3776 1926
L 3776 1421
L 2099 1421
L 2099 1024
L 3776 1024
L 3776 346
L 4243 346
L 4243 1024
L 6010 1024
L 6010 1421
L 4243 1421
L 4243 1926
L 5728 1926
L 5728 2298
L 4243 2298
L 4243 2771
L 5664 2771
L 5664 3635
L 6150 3635
L 6150 4026
L 5664 4026
L 5664 4864
L 4243 4864
L 4243 5325
L 3776 5325
L 3776 4864
L 2470 4864
z
M 4243 3635
L 5197 3635
L 5197 3162
L 4243 3162
L 4243 3635
z
M 4243 4026
L 4243 4480
L 5197 4480
L 5197 4026
L 4243 4026
z
M 870 2202
L 486 2061
C 646 1536 851 1120 1094 800
C 858 371 570 45 218 -192
C 320 -256 506 -429 576 -525
C 902 -288 1184 26 1421 435
C 2099 -186 3021 -339 4192 -339
L 5997 -339
C 6022 -205 6112 19 6189 128
C 5850 115 4467 115 4198 115
C 3136 122 2253 256 1632 851
C 1888 1440 2067 2176 2163 3091
L 1882 3155
L 1798 3149
L 1133 3149
C 1434 3757 1741 4410 1946 4896
L 1619 4992
L 1542 4973
L 262 4973
L 262 4538
L 1312 4538
C 1050 3974 672 3187 346 2586
L 787 2464
L 915 2714
L 1664 2714
C 1587 2144 1466 1658 1299 1242
C 1126 1504 986 1818 870 2202
z
" transform="scale(0.015625)"/>
      <path id="NotoSansCJKjp-Regular-7acb" d="M 1408 3194
C 1728 2362 1971 1267 2003 563
L 2496 685
C 2445 1395 2202 2464 1862 3309
L 1408 3194
z
M 2938 5376
L 2938 4115
L 550 4115
L 550 3642
L 5894 3642
L 5894 4115
L 3437 4115
L 3437 5376
L 2938 5376
z
M 4461 3347
C 4275 2400 3910 1069 3590 243
L 333 243
L 333 -230
L 6074 -230
L 6074 243
L 4096 243
C 4403 1062 4762 2272 5011 3245
L 4461 3347
z
" transform="scale(0.015625)"/>
      <path id="NotoSansCJKjp-Regular-8fde" d="M 531 5069
C 858 4704 1254 4211 1427 3898
L 1824 4166
C 1632 4474 1235 4960 902 5306
L 531 5069
z
M 1587 3206
L 288 3206
L 288 2758
L 1126 2758
L 1126 749
C 851 634 525 333 192 -58
L 550 -525
C 845 -77 1133 333 1331 333
C 1472 333 1690 102 1958 -77
C 2419 -371 2963 -442 3795 -442
C 4442 -442 5626 -403 6080 -371
C 6093 -224 6170 32 6234 166
C 5587 96 4608 38 3814 38
C 3066 38 2502 83 2080 358
C 1856 499 1709 627 1587 704
L 1587 3206
z
M 2406 2611
C 2464 2669 2688 2707 2995 2707
L 3981 2707
L 3981 1830
L 2022 1830
L 2022 1382
L 3981 1382
L 3981 205
L 4474 205
L 4474 1382
L 6022 1382
L 6022 1830
L 4474 1830
L 4474 2707
L 5715 2707
L 5722 3155
L 4474 3155
L 4474 3942
L 3981 3942
L 3981 3155
L 2931 3155
C 3123 3488 3309 3878 3488 4288
L 5907 4288
L 5907 4710
L 3654 4710
L 3853 5242
L 3354 5376
C 3296 5152 3219 4928 3136 4710
L 2074 4710
L 2074 4288
L 2970 4288
C 2816 3917 2669 3616 2598 3494
C 2470 3264 2362 3104 2253 3078
C 2304 2950 2387 2714 2406 2611
z
" transform="scale(0.015625)"/>
      <path id="NotoSansCJKjp-Regular-63a5" d="M 1152 5370
L 1152 4083
L 282 4083
L 282 3635
L 1152 3635
L 1152 2240
L 173 1971
L 288 1504
L 1152 1766
L 1152 70
C 1152 -19 1120 -51 1037 -51
C 954 -51 691 -51 397 -45
C 461 -179 525 -384 544 -506
C 966 -512 1222 -493 1389 -416
C 1555 -339 1613 -198 1613 77
L 1613 1914
L 2176 2086
L 2176 1722
L 3123 1722
C 2938 1331 2752 954 2592 672
L 3014 531
L 3110 704
C 3373 621 3648 518 3923 403
C 3475 134 2854 -26 2016 -109
C 2093 -205 2170 -378 2208 -506
C 3187 -378 3898 -160 4397 198
C 4915 -32 5382 -288 5690 -518
L 5990 -154
C 5690 64 5242 301 4755 518
C 5043 832 5229 1229 5344 1722
L 6112 1722
L 6112 2144
L 3827 2144
L 4115 2771
L 6138 2771
L 6138 3194
L 4966 3194
C 5101 3482 5248 3885 5376 4250
L 5184 4275
L 5952 4275
L 5952 4698
L 4397 4698
L 4397 5376
L 3917 5376
L 3917 4698
L 2394 4698
L 2394 4275
L 3290 4275
L 3002 4218
C 3123 3898 3226 3475 3258 3194
L 2138 3194
L 2138 2771
L 3597 2771
L 3322 2144
L 2291 2144
L 2234 2554
L 1613 2374
L 1613 3635
L 2234 3635
L 2234 4083
L 1613 4083
L 1613 5370
L 1152 5370
z
M 3430 4275
L 4890 4275
C 4806 3955 4659 3507 4538 3219
L 4685 3194
L 3526 3194
L 3706 3238
C 3680 3501 3558 3936 3430 4275
z
M 3622 1722
L 4858 1722
C 4749 1306 4576 966 4314 704
C 3968 845 3622 966 3296 1062
L 3622 1722
z
" transform="scale(0.015625)"/>
     </defs>
     <use xlink:href="#NotoSansCJKjp-Regular-4fdd"/>
     <use xlink:href="#NotoSansCJKjp-Regular-7559" transform="translate(99.999985 0)"/>
     <use xlink:href="#NotoSansCJKjp-Regular-6709" transform="translate(199.999969 0)"/>
     <use xlink:href="#NotoSansCJKjp-Regular-6548" transform="translate(299.999954 0)"/>
     <use xlink:href="#NotoSansCJKjp-Regular-5173" transform="translate(399.999939 0)"/>
     <use xlink:href="#NotoSansCJKjp-Regular-7cfb" transform="translate(499.999924 0)"/>
     <use xlink:href="#NotoSansCJKjp-Regular-ff0c" transform="translate(599.999908 0)"/>
     <use xlink:href="#NotoSansCJKjp-Regular-518d" transform="translate(699.999893 0)"/>
     <use xlink:href="#NotoSansCJKjp-Regular-5efa" transform="translate(799.999878 0)"/>
     <use xlink:href="#NotoSansCJKjp-Regular-7acb" transform="translate(899.999863 0)"/>
     <use xlink:href="#NotoSansCJKjp-Regular-8fde" transform="translate(999.999847 0)"/>
     <use xlink:href="#NotoSansCJKjp-Regular-63a5" transform="translate(1099.999832 0)"/>
    </g>
   </g>
   <g id="text_8">
    <!-- 数学事实按原条件保留 -->
    <g style="fill: #203e43" transform="translate(27.1485 364.388832) scale(0.16 -0.16)">
     <defs>
      <path id="NotoSansCJKjp-Regular-6570" d="M 2803 5254
C 2688 4998 2483 4627 2317 4403
L 2643 4243
C 2816 4454 3027 4781 3219 5075
L 2803 5254
z
M 531 5075
C 704 4806 870 4454 928 4230
L 1312 4397
C 1248 4627 1075 4973 890 5222
L 531 5075
z
M 4026 5382
C 3846 4243 3507 3162 2970 2490
C 3078 2413 3283 2246 3360 2163
C 3533 2394 3693 2669 3827 2970
C 3974 2310 4160 1709 4410 1184
C 4090 698 3667 314 3110 19
C 2912 166 2656 326 2374 480
C 2598 774 2746 1126 2829 1562
L 3398 1562
L 3398 1958
L 1677 1958
L 1894 2413
L 1779 2438
L 2061 2438
L 2061 3398
C 2374 3168 2771 2854 2938 2701
L 3206 3046
C 3034 3174 2336 3616 2061 3776
L 2061 3802
L 3373 3802
L 3373 4198
L 2061 4198
L 2061 5382
L 1613 5382
L 1613 4198
L 288 4198
L 288 3802
L 1485 3802
C 1171 3379 678 2982 218 2784
C 314 2694 422 2528 480 2419
C 870 2637 1293 2989 1613 3373
L 1613 2477
L 1440 2515
L 1178 1958
L 250 1958
L 250 1562
L 979 1562
C 806 1222 627 896 486 653
L 909 506
L 1005 678
C 1222 589 1434 493 1638 384
C 1306 147 858 -13 269 -109
C 352 -211 448 -384 480 -512
C 1171 -365 1683 -154 2061 160
C 2355 -13 2611 -186 2810 -352
L 2963 -192
C 3046 -301 3136 -448 3174 -531
C 3802 -205 4288 205 4666 710
C 4979 192 5370 -224 5862 -512
C 5939 -378 6093 -192 6208 -96
C 5690 173 5280 614 4960 1165
C 5350 1856 5594 2707 5754 3750
L 6144 3750
L 6144 4198
L 4262 4198
C 4358 4557 4442 4928 4506 5312
L 4026 5382
z
M 1478 1562
L 2368 1562
C 2285 1216 2157 928 1965 698
C 1715 819 1459 934 1197 1030
L 1478 1562
z
M 4134 3750
L 5254 3750
C 5139 2950 4966 2266 4698 1696
C 4435 2298 4250 3002 4134 3750
z
" transform="scale(0.015625)"/>
      <path id="NotoSansCJKjp-Regular-5b66" d="M 2963 2221
L 2963 1760
L 384 1760
L 384 1306
L 2963 1306
L 2963 70
C 2963 -19 2931 -51 2803 -58
C 2669 -64 2234 -64 1741 -51
C 1824 -186 1914 -384 1952 -518
C 2534 -518 2899 -512 3136 -442
C 3373 -365 3450 -230 3450 64
L 3450 1306
L 6048 1306
L 6048 1760
L 3450 1760
L 3450 1926
C 4019 2195 4614 2605 5018 3008
L 4704 3238
L 4602 3213
L 1459 3213
L 1459 2790
L 4122 2790
C 3853 2586 3526 2374 3213 2221
L 2963 2221
z
M 2598 5248
C 2790 4966 2989 4589 3072 4314
L 1766 4314
L 1971 4416
C 1869 4666 1600 5030 1357 5299
L 954 5114
C 1152 4870 1370 4557 1498 4314
L 512 4314
L 512 2880
L 973 2880
L 973 3878
L 5459 3878
L 5459 2880
L 5939 2880
L 5939 4314
L 4941 4314
C 5158 4570 5395 4877 5594 5165
L 5088 5338
C 4934 5030 4646 4608 4403 4314
L 3277 4314
L 3539 4416
C 3456 4691 3232 5101 3014 5408
L 2598 5248
z
" transform="scale(0.015625)"/>
      <path id="NotoSansCJKjp-Regular-4e8b" d="M 858 838
L 858 461
L 2938 461
L 2938 26
C 2938 -90 2899 -122 2778 -128
C 2669 -134 2278 -141 1894 -128
C 1958 -237 2042 -416 2067 -531
C 2605 -531 2938 -525 3136 -454
C 3334 -384 3424 -269 3424 26
L 3424 461
L 4960 461
L 4960 179
L 5446 179
L 5446 1318
L 6112 1318
L 6112 1702
L 5446 1702
L 5446 2502
L 3424 2502
L 3424 2957
L 5344 2957
L 5344 4090
L 3424 4090
L 3424 4467
L 5984 4467
L 5984 4864
L 3424 4864
L 3424 5376
L 2938 5376
L 2938 4864
L 429 4864
L 429 4467
L 2938 4467
L 2938 4090
L 1101 4090
L 1101 2957
L 2938 2957
L 2938 2502
L 915 2502
L 915 2150
L 2938 2150
L 2938 1702
L 307 1702
L 307 1318
L 2938 1318
L 2938 838
L 858 838
z
M 1562 3750
L 2938 3750
L 2938 3296
L 1562 3296
L 1562 3750
z
M 3424 3750
L 4858 3750
L 4858 3296
L 3424 3296
L 3424 3750
z
M 3424 2150
L 4960 2150
L 4960 1702
L 3424 1702
L 3424 2150
z
M 3424 1318
L 4960 1318
L 4960 838
L 3424 838
L 3424 1318
z
" transform="scale(0.015625)"/>
      <path id="NotoSansCJKjp-Regular-5b9e" d="M 3443 685
C 4294 365 5146 -77 5664 -474
L 5958 -96
C 5427 282 4531 723 3674 1037
L 3443 685
z
M 1536 3565
C 1882 3360 2291 3040 2477 2816
L 2784 3162
C 2586 3392 2170 3680 1824 3872
L 1536 3565
z
M 896 2566
C 1261 2368 1690 2048 1894 1818
L 2189 2182
C 1978 2406 1542 2701 1184 2886
L 896 2566
z
M 576 4646
L 576 3347
L 1056 3347
L 1056 4198
L 5338 4198
L 5338 3347
L 5837 3347
L 5837 4646
L 3642 4646
C 3546 4870 3379 5184 3219 5421
L 2746 5274
C 2861 5082 2982 4851 3072 4646
L 576 4646
z
M 454 1638
L 454 1222
L 2765 1222
C 2406 602 1747 186 518 -70
C 621 -179 742 -365 794 -493
C 2234 -160 2950 397 3315 1222
L 5984 1222
L 5984 1638
L 3462 1638
C 3648 2259 3693 3002 3718 3878
L 3219 3878
C 3194 2970 3155 2234 2950 1638
L 454 1638
z
" transform="scale(0.015625)"/>
      <path id="NotoSansCJKjp-Regular-6309" d="M 2451 4486
L 2451 3238
L 2906 3238
L 2906 4058
L 5600 4058
L 5600 3245
L 6067 3245
L 6067 4486
L 4442 4486
L 4442 5376
L 3955 5376
L 3955 4486
L 2451 4486
z
M 2394 2810
L 2394 2368
L 3264 2368
C 3072 1837 2880 1318 2720 941
L 3162 800
L 3245 1005
C 3526 896 3821 774 4102 634
C 3642 256 3008 32 2170 -109
C 2259 -211 2381 -410 2419 -518
C 3334 -326 4032 -51 4538 410
C 5069 115 5536 -205 5830 -506
L 6144 -109
C 5843 179 5382 486 4870 762
C 5184 1171 5389 1696 5510 2368
L 6144 2368
L 6144 2810
L 3904 2810
L 4218 3757
L 3744 3834
C 3648 3520 3533 3168 3411 2810
L 2394 2810
z
M 3750 2368
L 5005 2368
C 4909 1786 4730 1331 4442 979
C 4096 1146 3738 1286 3398 1402
L 3750 2368
z
M 1158 5376
L 1158 4090
L 269 4090
L 269 3635
L 1158 3635
L 1158 2240
L 179 1971
L 314 1504
L 1158 1766
L 1158 45
C 1158 -51 1120 -77 1037 -77
C 954 -83 691 -83 397 -77
C 461 -205 525 -397 544 -512
C 966 -512 1229 -499 1395 -429
C 1562 -352 1619 -224 1619 45
L 1619 1907
L 2406 2157
L 2342 2586
L 1619 2374
L 1619 3635
L 2336 3635
L 2336 4090
L 1619 4090
L 1619 5376
L 1158 5376
z
" transform="scale(0.015625)"/>
      <path id="NotoSansCJKjp-Regular-539f" d="M 2362 2624
L 5024 2624
L 5024 2029
L 2362 2029
L 2362 2624
z
M 2362 3571
L 5024 3571
L 5024 2989
L 2362 2989
L 2362 3571
z
M 4474 1107
C 4954 723 5510 166 5754 -211
L 6150 51
C 5888 435 5325 966 4838 1338
L 4474 1107
z
M 2374 1318
C 2080 838 1606 352 1126 45
C 1242 -26 1434 -160 1523 -237
C 1990 109 2496 646 2835 1184
L 2374 1318
z
M 1888 3955
L 1888 1645
L 3450 1645
L 3450 13
C 3450 -64 3424 -90 3328 -96
C 3232 -96 2899 -96 2522 -90
C 2586 -211 2650 -390 2669 -512
C 3168 -512 3482 -512 3674 -442
C 3866 -371 3917 -243 3917 6
L 3917 1645
L 5510 1645
L 5510 3955
L 3750 3955
C 3814 4147 3885 4365 3949 4576
L 6035 4576
L 6035 5024
L 838 5024
L 838 3168
C 838 2163 787 749 224 -256
C 339 -301 550 -422 640 -499
C 1229 550 1312 2106 1312 3168
L 1312 4576
L 3386 4576
C 3347 4390 3296 4154 3238 3955
L 1888 3955
z
" transform="scale(0.015625)"/>
      <path id="NotoSansCJKjp-Regular-6761" d="M 4243 4371
C 3981 4026 3635 3718 3226 3462
C 2810 3712 2464 4006 2195 4346
L 2227 4371
L 4243 4371
z
M 2419 5389
C 2086 4806 1427 4141 474 3680
C 582 3610 736 3443 819 3328
C 1222 3546 1574 3782 1875 4045
C 2131 3731 2438 3456 2790 3213
C 2054 2835 1197 2586 371 2451
C 454 2342 563 2144 595 2016
C 1504 2195 2438 2490 3232 2944
C 3974 2534 4858 2266 5830 2125
C 5894 2253 6022 2451 6118 2554
C 5210 2669 4378 2893 3674 3219
C 4211 3597 4666 4058 4966 4621
L 4646 4813
L 4557 4787
L 2592 4787
C 2726 4954 2842 5120 2944 5286
L 2419 5389
z
M 2944 2509
L 2944 1818
L 365 1818
L 365 1389
L 2522 1389
C 1958 787 1056 256 237 0
C 346 -102 486 -282 557 -397
C 1408 -77 2349 538 2944 1248
L 2944 -512
L 3430 -512
L 3430 1242
C 4032 544 4966 -64 5837 -371
C 5914 -250 6054 -64 6163 32
C 5318 288 4422 794 3859 1389
L 6048 1389
L 6048 1818
L 3430 1818
L 3430 2509
L 2944 2509
z
" transform="scale(0.015625)"/>
      <path id="NotoSansCJKjp-Regular-4ef6" d="M 2029 2182
L 2029 1715
L 3866 1715
L 3866 -512
L 4346 -512
L 4346 1715
L 6099 1715
L 6099 2182
L 4346 2182
L 4346 3597
L 5818 3597
L 5818 4064
L 4346 4064
L 4346 5299
L 3866 5299
L 3866 4064
L 3008 4064
C 3091 4352 3162 4659 3226 4960
L 2765 5056
C 2618 4218 2349 3392 1978 2861
C 2093 2803 2298 2688 2387 2618
C 2560 2886 2720 3226 2854 3597
L 3866 3597
L 3866 2182
L 2029 2182
z
M 1715 5350
C 1370 4384 806 3424 205 2797
C 288 2688 429 2438 480 2323
C 685 2541 877 2797 1069 3072
L 1069 -499
L 1530 -499
L 1530 3821
C 1773 4269 1990 4742 2170 5216
L 1715 5350
z
" transform="scale(0.015625)"/>
     </defs>
     <use xlink:href="#NotoSansCJKjp-Regular-6570"/>
     <use xlink:href="#NotoSansCJKjp-Regular-5b66" transform="translate(99.999985 0)"/>
     <use xlink:href="#NotoSansCJKjp-Regular-4e8b" transform="translate(199.999969 0)"/>
     <use xlink:href="#NotoSansCJKjp-Regular-5b9e" transform="translate(299.999954 0)"/>
     <use xlink:href="#NotoSansCJKjp-Regular-6309" transform="translate(399.999939 0)"/>
     <use xlink:href="#NotoSansCJKjp-Regular-539f" transform="translate(499.999924 0)"/>
     <use xlink:href="#NotoSansCJKjp-Regular-6761" transform="translate(599.999908 0)"/>
     <use xlink:href="#NotoSansCJKjp-Regular-4ef6" transform="translate(699.999893 0)"/>
     <use xlink:href="#NotoSansCJKjp-Regular-4fdd" transform="translate(799.999878 0)"/>
     <use xlink:href="#NotoSansCJKjp-Regular-7559" transform="translate(899.999863 0)"/>
    </g>
   </g>
   <g id="text_9">
    <!-- 新确认根据支持新运行 -->
    <g style="fill: #203e43" transform="translate(27.1485 386.875296) scale(0.16 -0.16)">
     <defs>
      <path id="NotoSansCJKjp-Regular-6839" d="M 5280 3469
L 5280 2746
L 3398 2746
L 3398 3469
L 5280 3469
z
M 5280 3891
L 3398 3891
L 3398 4614
L 5280 4614
L 5280 3891
z
M 5760 2106
C 5510 1862 5120 1530 4781 1286
C 4614 1606 4486 1952 4390 2323
L 5741 2323
L 5741 5037
L 2938 5037
L 2938 166
L 2419 70
L 2554 -390
C 3142 -262 3923 -102 4666 70
L 4627 499
L 3398 256
L 3398 2323
L 3962 2323
C 4282 1011 4877 -26 5875 -531
C 5946 -397 6093 -218 6208 -128
C 5696 96 5286 474 4973 954
C 5331 1178 5741 1478 6080 1747
L 5760 2106
z
M 1293 5376
L 1293 4006
L 333 4006
L 333 3552
L 1235 3552
C 1030 2669 602 1664 173 1120
C 256 1011 378 819 429 691
C 749 1120 1062 1824 1293 2554
L 1293 -506
L 1747 -506
L 1747 2438
C 1965 2118 2221 1722 2336 1504
L 2630 1882
C 2502 2061 1933 2790 1747 2995
L 1747 3552
L 2592 3552
L 2592 4006
L 1747 4006
L 1747 5376
L 1293 5376
z
" transform="scale(0.015625)"/>
      <path id="NotoSansCJKjp-Regular-636e" d="M 3098 1523
L 3098 -518
L 3520 -518
L 3520 -256
L 5491 -256
L 5491 -493
L 5933 -493
L 5933 1523
L 4698 1523
L 4698 2317
L 6131 2317
L 6131 2733
L 4698 2733
L 4698 3437
L 5907 3437
L 5907 5094
L 2528 5094
L 2528 3162
C 2528 2144 2470 749 1805 -237
C 1914 -288 2112 -429 2202 -506
C 2733 275 2912 1363 2970 2317
L 4243 2317
L 4243 1523
L 3098 1523
z
M 2995 4678
L 5446 4678
L 5446 3859
L 2995 3859
L 2995 4678
z
M 2995 3437
L 4243 3437
L 4243 2733
L 2989 2733
L 2995 3162
L 2995 3437
z
M 3520 141
L 3520 1114
L 5491 1114
L 5491 141
L 3520 141
z
M 1069 5370
L 1069 4083
L 269 4083
L 269 3635
L 1069 3635
L 1069 2234
C 736 2131 429 2042 186 1978
L 314 1504
L 1069 1747
L 1069 90
C 1069 0 1037 -26 960 -26
C 883 -32 634 -32 358 -26
C 416 -154 480 -352 493 -467
C 896 -474 1146 -454 1299 -378
C 1459 -307 1517 -173 1517 90
L 1517 1894
L 2253 2138
L 2182 2579
L 1517 2368
L 1517 3635
L 2240 3635
L 2240 4083
L 1517 4083
L 1517 5370
L 1069 5370
z
" transform="scale(0.015625)"/>
      <path id="NotoSansCJKjp-Regular-8fd0" d="M 576 4998
C 960 4787 1408 4448 1619 4198
L 1958 4525
C 1741 4774 1280 5094 896 5299
L 576 4998
z
M 326 3699
C 730 3494 1210 3174 1434 2925
L 1766 3270
C 1530 3514 1043 3821 640 4013
L 326 3699
z
M 2458 5011
L 2458 4557
L 5677 4557
L 5677 5011
L 2458 5011
z
M 1606 2400
L 294 2400
L 294 1952
L 1139 1952
L 1139 749
C 832 480 493 218 211 19
L 461 -461
C 794 -179 1107 96 1402 371
C 1811 -134 2394 -358 3238 -390
C 3955 -416 5299 -403 6010 -371
C 6035 -230 6112 -6 6170 109
C 5402 58 3942 38 3232 64
C 2483 96 1920 314 1606 781
L 1606 2400
z
M 4506 2490
C 4749 2195 4998 1843 5216 1498
L 3149 1338
C 3392 1837 3667 2496 3885 3059
L 6144 3059
L 6144 3514
L 2042 3514
L 2042 3059
L 3322 3059
C 3155 2490 2893 1792 2662 1299
L 2093 1261
L 2170 781
C 3021 858 4262 966 5453 1082
C 5555 890 5638 710 5696 557
L 6118 787
C 5914 1312 5382 2099 4890 2682
L 4506 2490
z
" transform="scale(0.015625)"/>
      <path id="NotoSansCJKjp-Regular-884c" d="M 2784 4992
L 2784 4531
L 5933 4531
L 5933 4992
L 2784 4992
z
M 1709 5382
C 1382 4915 762 4346 224 3981
C 307 3891 442 3706 506 3597
C 1082 4006 1741 4634 2170 5190
L 1709 5382
z
M 2502 3226
L 2502 2765
L 4659 2765
L 4659 109
C 4659 6 4614 -26 4493 -32
C 4378 -38 3942 -38 3488 -19
C 3558 -160 3629 -358 3648 -493
C 4275 -493 4640 -493 4858 -422
C 5069 -339 5146 -192 5146 102
L 5146 2765
L 6112 2765
L 6112 3226
L 2502 3226
z
M 1965 4006
C 1523 3277 819 2534 160 2061
C 256 1965 429 1754 499 1658
C 736 1850 986 2080 1229 2330
L 1229 -531
L 1702 -531
L 1702 2854
C 1971 3174 2214 3507 2419 3840
L 1965 4006
z
" transform="scale(0.015625)"/>
     </defs>
     <use xlink:href="#NotoSansCJKjp-Regular-65b0"/>
     <use xlink:href="#NotoSansCJKjp-Regular-786e" transform="translate(99.999985 0)"/>
     <use xlink:href="#NotoSansCJKjp-Regular-8ba4" transform="translate(199.999969 0)"/>
     <use xlink:href="#NotoSansCJKjp-Regular-6839" transform="translate(299.999954 0)"/>
     <use xlink:href="#NotoSansCJKjp-Regular-636e" transform="translate(399.999939 0)"/>
     <use xlink:href="#NotoSansCJKjp-Regular-652f" transform="translate(499.999924 0)"/>
     <use xlink:href="#NotoSansCJKjp-Regular-6301" transform="translate(599.999908 0)"/>
     <use xlink:href="#NotoSansCJKjp-Regular-65b0" transform="translate(699.999893 0)"/>
     <use xlink:href="#NotoSansCJKjp-Regular-8fd0" transform="translate(799.999878 0)"/>
     <use xlink:href="#NotoSansCJKjp-Regular-884c" transform="translate(899.999863 0)"/>
    </g>
   </g>
  </g>
 </g>
 <defs>
  <clipPath id="p0fc09dae0c">
   <rect x="7.2" y="7.2" width="362.7" height="432.432"/>
  </clipPath>
 </defs>
</svg>
